<svg width="315" height="312" viewBox="0 0 315 312" fill="none" xmlns="http://www.w3.org/2000/svg">
<path d="M266.986 269.118C266.863 268.985 266.797 268.809 266.803 268.627C266.81 268.445 266.889 268.272 267.023 268.147C267.156 268.023 267.334 267.956 267.517 267.962C268.655 267.999 269.778 268.02 270.888 268.027C270.979 268.029 271.069 268.05 271.152 268.088C271.235 268.126 271.31 268.18 271.373 268.246C271.435 268.313 271.483 268.392 271.515 268.477C271.547 268.563 271.561 268.654 271.558 268.745C271.551 268.928 271.472 269.101 271.338 269.225C271.204 269.35 271.027 269.417 270.844 269.411C269.723 269.406 268.593 269.381 267.448 269.35C267.27 269.335 267.105 269.252 266.986 269.118ZM275.089 269.134C274.975 269.009 274.911 268.846 274.909 268.677C274.904 268.494 274.972 268.316 275.098 268.183C275.224 268.05 275.397 267.972 275.58 267.966C276.72 267.944 277.843 267.907 278.948 267.855C279.039 267.85 279.13 267.863 279.215 267.894C279.301 267.925 279.38 267.972 279.447 268.033C279.515 268.094 279.569 268.167 279.608 268.25C279.647 268.332 279.67 268.421 279.674 268.512C279.679 268.602 279.665 268.693 279.635 268.779C279.604 268.865 279.557 268.943 279.496 269.011C279.435 269.078 279.361 269.133 279.279 269.172C279.197 269.211 279.108 269.233 279.017 269.238C277.899 269.29 276.765 269.328 275.615 269.353C275.524 269.353 275.433 269.336 275.348 269.301C275.264 269.266 275.187 269.214 275.123 269.15L275.089 269.134Z" fill="black"/>
<path d="M117.624 203.262C116.855 202.437 116.081 201.607 115.343 200.743C115.217 200.609 115.151 200.431 115.157 200.247C115.164 200.064 115.243 199.891 115.377 199.765C115.511 199.64 115.69 199.574 115.873 199.58C116.056 199.586 116.23 199.665 116.355 199.8C117.124 200.625 117.858 201.473 118.617 202.298C118.742 202.432 118.809 202.611 118.803 202.794C118.796 202.977 118.717 203.151 118.583 203.276C118.449 203.401 118.27 203.468 118.087 203.461C117.903 203.455 117.73 203.376 117.605 203.242L117.624 203.262ZM120.856 206.729C120.731 206.595 120.664 206.416 120.67 206.233C120.677 206.05 120.756 205.876 120.89 205.751C121.024 205.626 121.203 205.559 121.386 205.566C121.57 205.572 121.743 205.651 121.868 205.786C122.637 206.611 123.447 207.388 124.242 208.17C124.367 208.304 124.434 208.483 124.428 208.666C124.421 208.85 124.342 209.023 124.208 209.148C124.078 209.269 123.907 209.336 123.729 209.334C123.551 209.333 123.381 209.263 123.253 209.139C122.449 208.347 121.65 207.54 120.861 206.734L120.856 206.729ZM112.241 197.192L112.213 197.162C111.489 196.304 110.771 195.422 110.057 194.545C110 194.475 109.957 194.393 109.931 194.306C109.905 194.218 109.896 194.127 109.906 194.036C109.915 193.945 109.943 193.858 109.986 193.777C110.03 193.697 110.089 193.627 110.16 193.57C110.231 193.512 110.312 193.469 110.399 193.443C110.487 193.417 110.578 193.409 110.669 193.418C110.76 193.428 110.848 193.455 110.928 193.499C111.008 193.542 111.078 193.601 111.136 193.672C111.839 194.549 112.553 195.416 113.277 196.274C113.341 196.343 113.391 196.425 113.423 196.514C113.455 196.602 113.468 196.697 113.462 196.791C113.456 196.886 113.431 196.978 113.388 197.062C113.345 197.146 113.285 197.22 113.212 197.28C113.071 197.393 112.891 197.445 112.712 197.427C112.532 197.409 112.367 197.321 112.251 197.183L112.241 197.192ZM126.659 212.417C126.529 212.287 126.456 212.111 126.456 211.927C126.456 211.743 126.529 211.567 126.659 211.438C126.789 211.308 126.965 211.235 127.148 211.235C127.332 211.235 127.508 211.308 127.638 211.438C128.458 212.206 129.288 212.964 130.123 213.718C130.259 213.841 130.34 214.013 130.35 214.196C130.359 214.379 130.295 214.558 130.172 214.694C130.112 214.763 130.038 214.818 129.956 214.858C129.873 214.898 129.784 214.921 129.693 214.926C129.602 214.931 129.51 214.918 129.424 214.887C129.338 214.857 129.259 214.809 129.191 214.748C128.351 213.989 127.521 213.221 126.692 212.442L126.659 212.417ZM107.171 190.85L107.124 190.799L105.095 188.075C104.986 187.925 104.94 187.739 104.969 187.556C104.997 187.374 105.097 187.21 105.246 187.101C105.396 186.992 105.582 186.946 105.765 186.975C105.947 187.003 106.111 187.103 106.22 187.252C106.883 188.167 107.552 189.067 108.231 189.957C108.349 190.098 108.407 190.279 108.391 190.462C108.375 190.646 108.288 190.815 108.147 190.933C108.007 191.052 107.825 191.11 107.642 191.094C107.459 191.078 107.289 190.991 107.171 190.85ZM132.706 217.839C132.573 217.711 132.497 217.536 132.493 217.353C132.489 217.169 132.559 216.991 132.686 216.859C132.814 216.726 132.988 216.65 133.172 216.646C133.356 216.642 133.534 216.712 133.666 216.839C134.522 217.574 135.387 218.3 136.249 219.011C136.391 219.129 136.481 219.299 136.498 219.483C136.516 219.667 136.459 219.851 136.341 219.993C136.223 220.136 136.053 220.226 135.869 220.243C135.685 220.261 135.501 220.204 135.359 220.086C134.488 219.365 133.623 218.64 132.762 217.899L132.706 217.839ZM102.388 184.298L102.317 184.222C101.679 183.293 101.051 182.356 100.423 181.408C100.372 181.332 100.337 181.246 100.319 181.155C100.301 181.065 100.301 180.972 100.319 180.882C100.338 180.791 100.373 180.705 100.425 180.629C100.476 180.553 100.542 180.487 100.619 180.436C100.695 180.385 100.781 180.35 100.872 180.332C100.962 180.314 101.055 180.314 101.145 180.332C101.236 180.351 101.322 180.386 101.398 180.438C101.474 180.489 101.54 180.555 101.591 180.632C102.214 181.574 102.842 182.502 103.476 183.425C103.591 183.569 103.644 183.752 103.624 183.935C103.604 184.118 103.512 184.285 103.368 184.401C103.224 184.516 103.041 184.569 102.858 184.549C102.675 184.528 102.508 184.436 102.393 184.293L102.388 184.298ZM138.976 223.033C138.84 222.909 138.759 222.736 138.751 222.552C138.743 222.368 138.808 222.189 138.932 222.053C139.057 221.917 139.23 221.836 139.414 221.828C139.598 221.819 139.777 221.885 139.913 222.009C140.804 222.701 141.696 223.393 142.588 224.066C142.661 224.122 142.723 224.191 142.77 224.271C142.817 224.35 142.847 224.438 142.86 224.53C142.873 224.621 142.867 224.714 142.844 224.803C142.821 224.893 142.78 224.977 142.724 225.05C142.669 225.124 142.599 225.186 142.52 225.232C142.44 225.279 142.352 225.31 142.261 225.322C142.169 225.335 142.076 225.33 141.987 225.306C141.898 225.283 141.814 225.243 141.74 225.187C140.839 224.504 139.938 223.811 139.047 223.109L138.976 223.033ZM97.9602 177.508L97.8658 177.406C97.2729 176.446 96.69 175.475 96.1072 174.505C96.0527 174.427 96.0148 174.339 95.9959 174.246C95.977 174.152 95.9775 174.056 95.9974 173.963C96.0173 173.87 96.0562 173.782 96.1116 173.705C96.167 173.628 96.2377 173.563 96.3194 173.514C96.4011 173.465 96.4919 173.434 96.5863 173.422C96.6806 173.41 96.7764 173.417 96.8677 173.444C96.959 173.47 97.0439 173.516 97.1169 173.576C97.19 173.637 97.2498 173.713 97.2925 173.798C97.8702 174.773 98.4534 175.733 99.0416 176.689C99.1533 176.836 99.2021 177.021 99.1773 177.204C99.1526 177.386 99.0562 177.552 98.9094 177.663C98.7627 177.775 98.5775 177.824 98.3948 177.799C98.212 177.774 98.0466 177.678 97.9348 177.531L97.9602 177.508ZM145.468 227.918C145.33 227.795 145.247 227.623 145.236 227.439C145.225 227.255 145.287 227.074 145.41 226.936C145.532 226.799 145.704 226.715 145.888 226.704C146.072 226.693 146.253 226.756 146.391 226.878C147.303 227.532 148.225 228.186 149.148 228.821C149.302 228.928 149.407 229.092 149.44 229.277C149.473 229.462 149.431 229.652 149.324 229.806C149.216 229.96 149.052 230.065 148.867 230.098C148.683 230.131 148.492 230.089 148.338 229.982C147.411 229.332 146.484 228.683 145.563 228.019L145.468 227.918ZM93.8438 170.504C93.7991 170.47 93.7607 170.429 93.7306 170.382C93.1778 169.393 92.6399 168.4 92.1124 167.388C92.0282 167.226 92.0111 167.038 92.0649 166.864C92.1187 166.69 92.239 166.544 92.3997 166.458C92.4802 166.414 92.5684 166.388 92.6593 166.379C92.7503 166.37 92.8421 166.379 92.9294 166.406C93.0168 166.432 93.098 166.476 93.1684 166.535C93.2387 166.593 93.2969 166.664 93.3394 166.745C93.8625 167.743 94.3957 168.731 94.934 169.715C95.043 169.864 95.0883 170.05 95.0598 170.233C95.0314 170.416 94.9316 170.579 94.7823 170.688C94.633 170.797 94.4466 170.843 94.2639 170.814C94.0813 170.786 93.9174 170.686 93.8084 170.537L93.8438 170.504ZM152.136 232.524C151.996 232.404 151.909 232.234 151.894 232.049C151.879 231.865 151.939 231.683 152.058 231.542C152.178 231.402 152.349 231.314 152.533 231.3C152.717 231.285 152.9 231.344 153.04 231.464C153.978 232.085 154.926 232.696 155.869 233.302C155.954 233.346 156.028 233.408 156.087 233.483C156.147 233.558 156.19 233.644 156.214 233.736C156.239 233.829 156.244 233.925 156.229 234.019C156.214 234.114 156.18 234.204 156.129 234.285C156.078 234.365 156.01 234.434 155.931 234.487C155.852 234.541 155.762 234.577 155.668 234.594C155.574 234.611 155.478 234.608 155.385 234.586C155.292 234.564 155.205 234.523 155.128 234.465C154.175 233.859 153.223 233.243 152.275 232.622C152.24 232.581 152.211 232.535 152.187 232.487L152.136 232.524ZM90.073 163.282C90.0205 163.24 89.9744 163.19 89.9362 163.135C89.438 162.123 88.9655 161.079 88.4674 160.067C88.4251 159.984 88.3999 159.894 88.3933 159.801C88.3868 159.708 88.3991 159.615 88.4294 159.527C88.4597 159.439 88.5075 159.358 88.5698 159.289C88.6321 159.22 88.7077 159.164 88.7921 159.125C88.8765 159.086 88.9679 159.064 89.0609 159.061C89.1539 159.058 89.2466 159.073 89.3334 159.107C89.4202 159.141 89.4993 159.191 89.566 159.256C89.6327 159.321 89.6857 159.399 89.7217 159.485C90.1999 160.505 90.6782 161.526 91.1817 162.522C91.2874 162.675 91.3282 162.863 91.2951 163.045C91.2621 163.228 91.1579 163.39 91.0055 163.496C90.8531 163.601 90.665 163.642 90.4825 163.609C90.3 163.576 90.1382 163.472 90.0325 163.319L90.073 163.282ZM159.015 236.859C158.905 236.75 158.835 236.608 158.816 236.455C158.796 236.301 158.828 236.146 158.908 236.013C158.955 235.935 159.016 235.867 159.09 235.812C159.163 235.758 159.247 235.719 159.335 235.697C159.424 235.675 159.516 235.671 159.606 235.685C159.696 235.698 159.783 235.73 159.861 235.777C160.825 236.355 161.793 236.937 162.762 237.5C162.847 237.542 162.922 237.601 162.983 237.674C163.044 237.746 163.089 237.83 163.116 237.92C163.143 238.011 163.151 238.106 163.14 238.2C163.129 238.294 163.099 238.384 163.052 238.466C163.004 238.548 162.941 238.619 162.865 238.675C162.789 238.731 162.702 238.771 162.61 238.793C162.518 238.814 162.422 238.817 162.329 238.8C162.236 238.783 162.148 238.747 162.069 238.695C161.087 238.122 160.114 237.544 159.148 236.962C159.115 236.918 159.087 236.871 159.065 236.822L159.015 236.859ZM86.7002 155.878C86.6462 155.818 86.6023 155.751 86.5702 155.677C86.1234 154.643 85.6835 153.6 85.2505 152.546C85.1812 152.376 85.1822 152.186 85.2533 152.017C85.3244 151.847 85.4599 151.713 85.6298 151.644C85.7998 151.575 85.9903 151.576 86.1595 151.647C86.3287 151.718 86.4627 151.853 86.5321 152.023C86.9607 153.062 87.3991 154.1 87.843 155.125C87.9125 155.275 87.9258 155.445 87.8805 155.605C87.8351 155.764 87.734 155.902 87.5957 155.993C87.4573 156.084 87.2909 156.123 87.1265 156.102C86.9622 156.08 86.811 156.001 86.7002 155.878ZM166.095 240.902C165.995 240.795 165.932 240.66 165.914 240.515C165.897 240.37 165.925 240.224 165.996 240.096C166.085 239.935 166.233 239.817 166.41 239.766C166.586 239.715 166.775 239.737 166.935 239.825C167.92 240.364 168.9 240.918 169.905 241.428C169.989 241.469 170.063 241.526 170.124 241.596C170.185 241.666 170.232 241.748 170.26 241.836C170.289 241.925 170.3 242.018 170.292 242.111C170.284 242.203 170.257 242.293 170.213 242.375C170.169 242.458 170.11 242.53 170.037 242.588C169.965 242.647 169.882 242.69 169.792 242.716C169.703 242.741 169.609 242.748 169.517 242.737C169.424 242.725 169.335 242.695 169.255 242.649C168.255 242.124 167.259 241.586 166.266 241.036C166.206 240.995 166.152 240.947 166.105 240.893L166.095 240.902ZM173.295 244.72C173.184 244.601 173.119 244.446 173.111 244.284C173.102 244.121 173.151 243.961 173.25 243.831C173.348 243.701 173.488 243.61 173.647 243.574C173.805 243.538 173.972 243.558 174.117 243.632C175.122 244.142 176.133 244.638 177.139 245.129C177.227 245.164 177.308 245.217 177.375 245.284C177.442 245.352 177.494 245.432 177.529 245.521C177.563 245.61 177.579 245.705 177.575 245.8C177.572 245.895 177.548 245.988 177.507 246.074C177.465 246.16 177.406 246.236 177.334 246.298C177.262 246.36 177.178 246.406 177.087 246.434C176.996 246.462 176.9 246.471 176.805 246.46C176.711 246.449 176.619 246.419 176.537 246.371C175.519 245.881 174.504 245.381 173.49 244.868C173.417 244.83 173.351 244.78 173.295 244.72ZM83.659 148.373C83.5982 148.306 83.551 148.228 83.5202 148.143C83.12 147.084 82.7282 146.021 82.3446 144.953C82.2825 144.78 82.2917 144.59 82.3701 144.424C82.4484 144.257 82.5896 144.129 82.7625 144.067C82.9355 144.005 83.126 144.014 83.2922 144.092C83.4584 144.171 83.5867 144.312 83.6487 144.485C84.019 145.559 84.4079 146.615 84.8153 147.655C84.8744 147.805 84.8789 147.972 84.8279 148.125C84.7769 148.279 84.6738 148.41 84.5363 148.495C84.3988 148.581 84.2358 148.615 84.0755 148.593C83.9152 148.57 83.7679 148.493 83.659 148.373ZM180.623 248.248C180.516 248.13 180.453 247.98 180.444 247.821C180.435 247.663 180.48 247.506 180.573 247.377C180.666 247.248 180.801 247.155 180.954 247.114C181.107 247.072 181.27 247.085 181.415 247.149C182.437 247.616 183.464 248.078 184.495 248.536C184.662 248.609 184.794 248.746 184.86 248.917C184.927 249.087 184.923 249.276 184.85 249.444C184.814 249.528 184.762 249.604 184.696 249.667C184.631 249.731 184.553 249.78 184.468 249.814C184.383 249.847 184.293 249.864 184.201 249.862C184.11 249.86 184.02 249.84 183.937 249.804L180.838 248.407C180.753 248.358 180.678 248.292 180.619 248.213L180.623 248.248ZM80.9434 140.659C80.8757 140.585 80.8238 140.499 80.7908 140.404C80.43 139.34 80.0877 138.259 79.764 137.161C79.7104 136.985 79.7289 136.795 79.8154 136.633C79.9019 136.471 80.0493 136.349 80.2252 136.296C80.4011 136.242 80.5911 136.261 80.7533 136.347C80.9155 136.434 81.0368 136.581 81.0903 136.757C81.4244 137.839 81.7638 138.911 82.1084 139.97C82.1587 140.121 82.1559 140.284 82.1005 140.432C82.0452 140.58 81.9406 140.705 81.8043 140.786C81.668 140.866 81.5081 140.898 81.3515 140.875C81.1948 140.852 81.0508 140.775 80.9434 140.659ZM188.085 251.452C187.994 251.356 187.933 251.235 187.909 251.105C187.885 250.975 187.899 250.841 187.949 250.718C187.983 250.634 188.035 250.557 188.099 250.492C188.164 250.427 188.241 250.376 188.325 250.341C188.41 250.307 188.5 250.289 188.592 250.289C188.683 250.29 188.774 250.308 188.858 250.344C189.9 250.782 190.957 251.225 191.96 251.642C192.053 251.669 192.139 251.715 192.213 251.777C192.287 251.84 192.347 251.917 192.389 252.003C192.432 252.09 192.456 252.185 192.459 252.281C192.463 252.377 192.446 252.474 192.41 252.563C192.375 252.653 192.321 252.734 192.252 252.802C192.183 252.869 192.1 252.922 192.01 252.955C191.919 252.989 191.823 253.004 191.727 252.998C191.63 252.992 191.536 252.966 191.45 252.922C190.402 252.508 189.331 252.059 188.308 251.641C188.22 251.597 188.143 251.532 188.085 251.452ZM78.6221 132.871C78.5485 132.789 78.4935 132.692 78.4608 132.586C78.1661 131.499 77.8666 130.406 77.5824 129.299C77.5394 129.119 77.5699 128.928 77.6673 128.77C77.7647 128.612 77.9209 128.499 78.1016 128.456C78.2823 128.413 78.4727 128.444 78.6309 128.541C78.7891 128.638 78.9021 128.795 78.9451 128.975C79.225 130.067 79.5197 131.155 79.8147 132.232C79.8573 132.382 79.8481 132.542 79.7888 132.685C79.7295 132.829 79.6235 132.949 79.4879 133.025C79.3522 133.101 79.1949 133.129 79.0412 133.105C78.8876 133.081 78.7466 133.005 78.641 132.891L78.6221 132.871ZM195.626 254.469C195.538 254.374 195.477 254.257 195.452 254.129C195.427 254.002 195.439 253.87 195.485 253.749C195.55 253.578 195.68 253.439 195.847 253.363C196.014 253.287 196.204 253.28 196.376 253.345C197.434 253.739 198.492 254.134 199.546 254.514C199.634 254.543 199.716 254.589 199.785 254.65C199.855 254.711 199.912 254.785 199.952 254.869C199.993 254.952 200.016 255.042 200.021 255.135C200.026 255.227 200.012 255.32 199.98 255.407C199.949 255.494 199.9 255.574 199.837 255.642C199.774 255.71 199.698 255.764 199.614 255.802C199.529 255.84 199.438 255.861 199.345 255.863C199.253 255.865 199.161 255.848 199.075 255.814C198.018 255.431 196.956 255.04 195.89 254.64C195.79 254.604 195.7 254.545 195.626 254.469ZM76.6021 125.01C76.5199 124.92 76.463 124.81 76.437 124.691C76.1819 123.592 75.9367 122.487 75.7016 121.375C75.6668 121.283 75.6523 121.184 75.659 121.085C75.6657 120.986 75.6935 120.89 75.7405 120.803C75.7875 120.716 75.8527 120.64 75.9315 120.58C76.0104 120.521 76.1011 120.478 76.1976 120.457C76.2942 120.435 76.3942 120.434 76.491 120.455C76.5879 120.475 76.6792 120.516 76.759 120.574C76.8387 120.633 76.905 120.708 76.9533 120.794C77.0016 120.88 77.0308 120.976 77.039 121.075C77.2744 122.18 77.5182 123.277 77.7704 124.366C77.806 124.515 77.7912 124.672 77.7282 124.811C77.6653 124.951 77.5577 125.066 77.4224 125.138C77.2872 125.21 77.1318 125.235 76.9808 125.209C76.8298 125.183 76.6916 125.108 76.5879 124.995L76.6021 125.01ZM203.286 257.196C203.18 257.084 203.115 256.939 203.101 256.785C203.086 256.632 203.124 256.478 203.207 256.348C203.291 256.218 203.415 256.12 203.561 256.069C203.706 256.018 203.865 256.017 204.011 256.066C205.082 256.43 206.152 256.783 207.22 257.124C207.307 257.151 207.389 257.195 207.459 257.254C207.529 257.312 207.588 257.384 207.63 257.465C207.673 257.546 207.699 257.635 207.707 257.726C207.716 257.817 207.706 257.909 207.679 257.997C207.652 258.084 207.608 258.165 207.549 258.236C207.49 258.306 207.419 258.364 207.337 258.407C207.256 258.45 207.168 258.476 207.077 258.484C206.985 258.492 206.893 258.483 206.806 258.456C205.731 258.114 204.657 257.753 203.583 257.392C203.467 257.356 203.363 257.29 203.281 257.201L203.286 257.196ZM74.9378 117.054C74.8483 116.959 74.7893 116.84 74.7688 116.711C74.558 115.602 74.3621 114.488 74.1666 113.365C74.1507 113.275 74.1528 113.183 74.1728 113.094C74.1927 113.005 74.2301 112.92 74.2828 112.846C74.3355 112.771 74.4024 112.708 74.4798 112.659C74.5571 112.61 74.6433 112.578 74.7334 112.562C74.8233 112.547 74.9153 112.55 75.0041 112.571C75.093 112.591 75.1768 112.629 75.2509 112.682C75.3251 112.735 75.388 112.803 75.436 112.88C75.4841 112.958 75.5163 113.044 75.5309 113.134C75.7268 114.247 75.918 115.356 76.1291 116.455C76.1585 116.603 76.1385 116.757 76.072 116.893C76.0056 117.029 75.8965 117.14 75.7614 117.208C75.6262 117.276 75.4725 117.297 75.3238 117.27C75.1751 117.242 75.0395 117.166 74.9378 117.054ZM211.032 259.681C210.927 259.57 210.862 259.427 210.847 259.274C210.831 259.122 210.867 258.969 210.949 258.839C211.03 258.709 211.152 258.61 211.296 258.557C211.44 258.504 211.597 258.5 211.743 258.546C212.822 258.871 213.902 259.188 214.985 259.497C215.137 259.567 215.258 259.689 215.327 259.841C215.396 259.993 215.408 260.165 215.36 260.325C215.312 260.485 215.208 260.622 215.066 260.711C214.925 260.8 214.756 260.835 214.591 260.81C213.506 260.498 212.42 260.185 211.33 259.858C211.217 259.825 211.115 259.764 211.032 259.681ZM73.5941 109.036C73.5007 108.934 73.4404 108.805 73.4209 108.668C73.2575 107.559 73.1043 106.441 72.9611 105.313C72.937 105.131 72.9861 104.947 73.0978 104.801C73.2094 104.655 73.3744 104.56 73.5564 104.536C73.7383 104.511 73.9225 104.561 74.0682 104.672C74.2139 104.784 74.3094 104.949 74.3335 105.131C74.4548 106.276 74.6366 107.374 74.7984 108.481C74.8258 108.663 74.78 108.848 74.671 108.995C74.5621 109.143 74.3989 109.241 74.2175 109.269C74.1024 109.286 73.985 109.273 73.876 109.232C73.767 109.192 73.6701 109.124 73.5941 109.036ZM218.873 261.852C218.773 261.742 218.711 261.602 218.696 261.454C218.682 261.306 218.715 261.158 218.792 261.03C218.868 260.903 218.983 260.803 219.121 260.746C219.258 260.69 219.41 260.679 219.554 260.715C220.648 261.002 221.739 261.28 222.83 261.55C222.918 261.572 223.001 261.611 223.074 261.665C223.147 261.72 223.209 261.788 223.256 261.866C223.303 261.944 223.334 262.03 223.347 262.12C223.361 262.21 223.356 262.302 223.334 262.39C223.312 262.478 223.273 262.562 223.219 262.635C223.164 262.708 223.096 262.769 223.018 262.816C222.94 262.863 222.854 262.894 222.764 262.907C222.674 262.921 222.582 262.916 222.494 262.894C221.397 262.621 220.305 262.342 219.204 262.054C219.067 262.027 218.941 261.96 218.843 261.86L218.873 261.852ZM72.5751 100.971C72.4739 100.859 72.4118 100.718 72.3983 100.568C72.281 99.4477 72.1754 98.3195 72.0814 97.1836C72.0652 97.0006 72.1222 96.8186 72.2401 96.6777C72.358 96.5367 72.5271 96.4484 72.7101 96.4321C72.8931 96.4158 73.0751 96.4729 73.216 96.5908C73.3569 96.7087 73.4453 96.8777 73.4616 97.0607C73.5622 98.1904 73.6647 99.3152 73.769 100.435C73.7845 100.58 73.7539 100.726 73.6814 100.853C73.6089 100.979 73.4983 101.08 73.3653 101.14C73.2324 101.2 73.0839 101.216 72.9411 101.187C72.7982 101.157 72.6684 101.083 72.57 100.976L72.5751 100.971ZM226.751 263.808C226.673 263.725 226.617 263.624 226.588 263.515C226.559 263.405 226.556 263.29 226.582 263.18C226.624 263.003 226.734 262.849 226.889 262.753C227.044 262.657 227.23 262.625 227.408 262.665C228.515 262.91 229.613 263.154 230.702 263.379C230.791 263.397 230.876 263.434 230.951 263.485C231.026 263.537 231.09 263.603 231.14 263.679C231.189 263.755 231.223 263.84 231.24 263.93C231.256 264.019 231.255 264.111 231.236 264.2C231.218 264.289 231.181 264.374 231.13 264.449C231.078 264.524 231.013 264.588 230.936 264.638C230.86 264.687 230.775 264.721 230.685 264.738C230.596 264.755 230.504 264.753 230.415 264.734C229.313 264.5 228.213 264.264 227.115 264.026C226.974 263.993 226.846 263.917 226.751 263.808ZM71.9197 92.8693C71.8092 92.7513 71.7436 92.5983 71.7341 92.4369C71.6791 91.3088 71.6292 90.1761 71.5843 89.0386C71.5781 88.9461 71.5906 88.8534 71.6209 88.7658C71.6513 88.6783 71.699 88.5977 71.761 88.5289C71.8231 88.4601 71.8984 88.4045 71.9824 88.3654C72.0664 88.3262 72.1574 88.3044 72.25 88.3011C72.3426 88.2978 72.435 88.3131 72.5215 88.3461C72.6081 88.3792 72.6872 88.4293 72.754 88.4935C72.8208 88.5577 72.8741 88.6346 72.9106 88.7198C72.9472 88.805 72.9662 88.8966 72.9667 88.9893C73.0055 90.1135 73.0558 91.2364 73.1176 92.3582C73.1229 92.449 73.1102 92.5401 73.0802 92.626C73.0503 92.712 73.0037 92.7912 72.9431 92.8591C72.8825 92.927 72.8091 92.9823 72.7271 93.0218C72.6451 93.0613 72.5561 93.0842 72.4652 93.0893C72.3637 93.0949 72.2622 93.0782 72.1679 93.0401C72.0736 93.0021 71.9889 92.9438 71.9197 92.8693ZM234.702 265.478C234.602 265.371 234.538 265.235 234.52 265.09C234.502 264.944 234.53 264.797 234.601 264.669C234.672 264.541 234.782 264.438 234.914 264.377C235.047 264.315 235.196 264.297 235.34 264.325C236.469 264.521 237.558 264.736 238.658 264.931C238.839 264.963 239 265.065 239.106 265.216C239.212 265.366 239.254 265.553 239.222 265.734C239.19 265.916 239.088 266.077 238.937 266.183C238.787 266.289 238.6 266.33 238.419 266.298C237.299 266.112 236.2 265.897 235.077 265.687C234.935 265.654 234.808 265.577 234.712 265.468L234.702 265.478ZM71.6761 84.7528C71.5573 84.6245 71.4915 84.4561 71.4919 84.2812C71.4886 83.1207 71.5045 81.9707 71.5333 80.875C71.5361 80.7837 71.557 80.6939 71.5947 80.6107C71.6324 80.5275 71.6863 80.4526 71.7531 80.3903C71.8199 80.328 71.8984 80.2796 71.984 80.2478C72.0697 80.216 72.1608 80.2014 72.252 80.205C72.4347 80.212 72.6072 80.2909 72.7319 80.4247C72.8565 80.5584 72.9232 80.736 72.9173 80.9187C72.889 82.0047 72.8734 83.1449 72.8723 84.2906C72.872 84.4292 72.8301 84.5645 72.752 84.679C72.6739 84.7935 72.5632 84.8819 72.4342 84.9328C72.3053 84.9836 72.1641 84.9946 72.0288 84.9643C71.8936 84.9339 71.7706 84.8637 71.6757 84.7626L71.6761 84.7528ZM242.699 266.841C242.599 266.735 242.535 266.602 242.516 266.458C242.496 266.315 242.522 266.169 242.59 266.041C242.658 265.913 242.764 265.81 242.893 265.746C243.023 265.681 243.169 265.659 243.312 265.682C244.426 265.855 245.538 266.017 246.649 266.167C246.831 266.191 246.996 266.287 247.108 266.433C247.219 266.58 247.268 266.764 247.243 266.946C247.219 267.129 247.123 267.294 246.976 267.405C246.83 267.517 246.646 267.565 246.463 267.541C245.346 267.391 244.226 267.227 243.102 267.051C242.957 267.025 242.824 266.953 242.723 266.846L242.699 266.841ZM71.9279 76.6097C71.8632 76.541 71.8131 76.4599 71.7809 76.3712C71.7486 76.2825 71.7348 76.1881 71.7404 76.0939C71.815 74.9459 71.9092 73.7986 72.0215 72.6912C72.0469 72.5147 72.1393 72.3548 72.2797 72.2448C72.42 72.1348 72.5974 72.0832 72.7748 72.1008C72.9522 72.1184 73.116 72.2038 73.232 72.3392C73.348 72.4747 73.4073 72.6496 73.3975 72.8276C73.2905 73.9206 73.197 75.0483 73.1228 76.1865C73.1158 76.3692 73.0368 76.5417 72.9031 76.6664C72.7694 76.791 72.5917 76.8577 72.409 76.8518C72.232 76.8346 72.0685 76.75 71.9522 76.6154L71.9279 76.6097ZM250.758 267.946C250.661 267.843 250.599 267.712 250.579 267.572C250.559 267.432 250.582 267.289 250.646 267.163C250.71 267.037 250.81 266.933 250.935 266.866C251.059 266.798 251.201 266.771 251.342 266.787C252.468 266.919 253.59 267.037 254.698 267.15C254.88 267.167 255.048 267.255 255.165 267.396C255.283 267.537 255.339 267.719 255.323 267.901C255.314 267.992 255.288 268.081 255.245 268.162C255.202 268.243 255.143 268.314 255.072 268.372C255.002 268.43 254.92 268.474 254.832 268.5C254.744 268.526 254.652 268.535 254.561 268.525C253.444 268.413 252.322 268.295 251.186 268.162C251.022 268.143 250.87 268.067 250.758 267.946ZM258.853 268.715C258.787 268.646 258.737 268.563 258.704 268.472C258.672 268.382 258.659 268.286 258.666 268.19C258.673 268.099 258.697 268.01 258.739 267.928C258.78 267.846 258.837 267.774 258.906 267.714C258.976 267.655 259.056 267.61 259.143 267.581C259.23 267.553 259.322 267.543 259.413 267.55C260.541 267.634 261.67 267.708 262.779 267.771C262.874 267.77 262.969 267.788 263.057 267.824C263.145 267.861 263.224 267.915 263.29 267.983C263.356 268.052 263.407 268.133 263.44 268.223C263.473 268.312 263.488 268.407 263.482 268.502C263.477 268.597 263.452 268.69 263.409 268.775C263.366 268.86 263.306 268.935 263.233 268.996C263.16 269.057 263.074 269.102 262.983 269.128C262.892 269.154 262.796 269.162 262.701 269.149C261.58 269.09 260.449 269.016 259.306 268.927C259.14 268.903 258.988 268.82 258.879 268.692L258.853 268.715ZM72.7837 68.5563C72.7117 68.4798 72.658 68.3879 72.6267 68.2875C72.5954 68.1871 72.5875 68.081 72.6033 67.9771C72.7845 66.8622 72.9808 65.7332 73.1671 64.6137C73.2014 64.4324 73.3062 64.2722 73.4586 64.1683C73.611 64.0644 73.7985 64.0253 73.9797 64.0596C74.1609 64.0939 74.3211 64.1988 74.425 64.3512C74.529 64.5036 74.5681 64.691 74.5338 64.8722C74.3294 65.952 74.1384 67.0665 73.9954 68.2121C73.9676 68.3926 73.8696 68.5548 73.7227 68.6634C73.5758 68.772 73.392 68.8181 73.2112 68.7916C73.0506 68.7559 72.9081 68.6641 72.809 68.5327L72.7837 68.5563ZM74.3612 60.587C74.2824 60.5021 74.2261 60.3989 74.1976 60.2867C74.169 60.1745 74.1691 60.0569 74.1977 59.9447C74.4817 58.8286 74.79 57.7182 75.1165 56.6477C75.1702 56.4735 75.2905 56.3275 75.4512 56.2415C75.6119 56.1555 75.8001 56.1363 75.9748 56.1882C76.0621 56.2143 76.1433 56.2573 76.2139 56.3149C76.2845 56.3724 76.343 56.4433 76.3861 56.5235C76.4292 56.6037 76.4561 56.6917 76.4652 56.7823C76.4742 56.8729 76.4653 56.9644 76.439 57.0515C76.1182 58.0978 75.8106 59.1887 75.5421 60.2808C75.5202 60.3697 75.4808 60.4533 75.4264 60.5268C75.3719 60.6004 75.3034 60.6624 75.2248 60.7092C75.1462 60.7561 75.059 60.7869 74.9684 60.7999C74.8779 60.8129 74.7856 60.8078 74.697 60.7848C74.5762 60.7388 74.4693 60.6626 74.3865 60.5634L74.3612 60.587ZM76.8171 52.8395C76.7285 52.7448 76.6682 52.6271 76.6433 52.4998C76.6183 52.3726 76.6296 52.2409 76.6759 52.1197C77.0955 51.0475 77.5292 49.9905 78.0202 48.9747C78.0582 48.8915 78.1122 48.8167 78.1792 48.7545C78.2463 48.6924 78.3249 48.6441 78.4107 48.6125C78.4965 48.5809 78.5877 48.5666 78.679 48.5705C78.7704 48.5744 78.86 48.5963 78.9428 48.635C79.1084 48.7116 79.237 48.8505 79.3007 49.0214C79.3644 49.1924 79.358 49.3816 79.2829 49.5478C78.8266 50.5502 78.3635 51.6062 77.9892 52.6457C77.9218 52.8157 77.7898 52.9522 77.6221 53.0252C77.4544 53.0982 77.2646 53.1018 77.0942 53.0353C76.9936 52.9838 76.9072 52.9085 76.8424 52.8159L76.8171 52.8395ZM80.2875 45.4802C80.1786 45.3742 80.1076 45.2354 80.0854 45.0851C80.0633 44.9347 80.0912 44.7813 80.165 44.6484C80.7194 43.6397 81.2977 42.6466 81.899 41.6983C81.9967 41.542 82.1525 41.4309 82.3321 41.3894C82.5116 41.348 82.7003 41.3796 82.8566 41.4773C83.0129 41.575 83.124 41.7308 83.1654 41.9103C83.2069 42.0899 83.1753 42.2786 83.0776 42.4349C82.4868 43.364 81.9189 44.338 81.3753 45.3177C81.3317 45.3981 81.2726 45.4692 81.2013 45.5267C81.1301 45.5841 81.0482 45.6269 80.9603 45.6525C80.8724 45.6781 80.7803 45.686 80.6894 45.6758C80.5984 45.6656 80.5104 45.6374 80.4304 45.5929C80.3785 45.5612 80.3305 45.5233 80.2875 45.4802ZM84.684 38.6577C84.5699 38.5387 84.5019 38.3829 84.4925 38.2183C84.483 38.0537 84.5326 37.8912 84.6323 37.7599C85.3256 36.8393 86.0429 35.9343 86.7729 35.0835C86.8323 35.0139 86.9048 34.9567 86.9862 34.9151C87.0677 34.8735 87.1566 34.8483 87.2477 34.8411C87.3389 34.8338 87.4307 34.8446 87.5177 34.8728C87.6047 34.901 87.6853 34.946 87.7549 35.0054C87.8245 35.0647 87.8818 35.1372 87.9233 35.2187C87.9649 35.3002 87.9901 35.389 87.9973 35.4802C88.0046 35.5714 87.9938 35.6631 87.9656 35.7501C87.9374 35.8371 87.8924 35.9178 87.833 35.9874C87.1232 36.8192 86.4168 37.6953 85.7437 38.597C85.6891 38.6697 85.6207 38.7309 85.5424 38.7772C85.4641 38.8234 85.3775 38.8538 85.2875 38.8665C85.1975 38.8793 85.1058 38.8742 85.0178 38.8515C84.9297 38.8288 84.847 38.789 84.7744 38.7343L84.684 38.6577ZM90.0443 32.5545C89.9191 32.4203 89.8525 32.2418 89.8589 32.0584C89.8653 31.875 89.9444 31.7017 90.0786 31.5765C90.2609 31.4067 90.438 31.2415 90.6152 31.0764C91.2783 30.4583 91.9465 29.8355 92.6561 29.2876C92.798 29.1723 92.9798 29.1179 93.1617 29.1362C93.3436 29.1545 93.5109 29.2441 93.627 29.3853C93.6851 29.4555 93.7288 29.5364 93.7556 29.6234C93.7824 29.7105 93.7917 29.802 93.7831 29.8926C93.7744 29.9833 93.748 30.0714 93.7052 30.1518C93.6625 30.2322 93.6042 30.3034 93.5339 30.3613C92.8634 30.9106 92.2017 31.4896 91.5588 32.0888C91.3817 32.2539 91.2146 32.4096 91.0527 32.5606C90.9184 32.6857 90.7399 32.7524 90.5565 32.746C90.3731 32.7395 90.1998 32.6605 90.0746 32.5262L90.0443 32.5545ZM143.971 85.4668C143.898 85.3892 143.843 85.2956 143.812 85.1934C143.781 85.0912 143.774 84.9832 143.791 84.8778C143.977 83.7713 144.165 82.6501 144.355 81.5144C144.363 81.4187 144.391 81.3256 144.437 81.2413C144.483 81.157 144.546 81.0831 144.622 81.0245C144.699 80.9659 144.786 80.9238 144.879 80.9009C144.973 80.8779 145.07 80.8747 145.164 80.8913C145.259 80.9079 145.349 80.9441 145.429 80.9975C145.509 81.0509 145.577 81.1203 145.628 81.2014C145.68 81.2824 145.714 81.3733 145.729 81.4683C145.743 81.5633 145.738 81.6603 145.713 81.753C145.521 82.8773 145.34 83.9922 145.159 85.107C145.129 85.2876 145.029 85.4489 144.88 85.5556C144.731 85.6624 144.546 85.7058 144.365 85.6764C144.218 85.6451 144.085 85.5665 143.987 85.4526L143.971 85.4668ZM96.4051 27.5147C96.372 27.4892 96.3433 27.4584 96.3202 27.4236C96.2224 27.2693 96.1896 27.0826 96.2288 26.9043C96.2681 26.7259 96.3764 26.5703 96.5299 26.4713C97.5067 25.8447 98.5111 25.268 99.5232 24.7503C99.6851 24.6782 99.8685 24.6711 100.035 24.7302C100.203 24.7894 100.341 24.9104 100.421 25.0683C100.501 25.2262 100.518 25.409 100.468 25.5789C100.418 25.7488 100.304 25.893 100.151 25.9816C99.1784 26.4812 98.2138 27.0397 97.2725 27.6333C97.1364 27.7109 96.978 27.7401 96.8232 27.7159C96.6684 27.6918 96.5264 27.6159 96.4203 27.5006L96.4051 27.5147ZM145.355 77.4319C145.282 77.3543 145.227 77.2607 145.196 77.1586C145.165 77.0564 145.158 76.9483 145.175 76.8429C145.371 75.7335 145.554 74.6171 145.724 73.4937C145.738 73.4034 145.77 73.3167 145.818 73.2389C145.866 73.161 145.929 73.0934 146.003 73.04C146.078 72.9866 146.162 72.9485 146.251 72.9278C146.34 72.9071 146.432 72.9043 146.522 72.9195C146.703 72.9496 146.864 73.05 146.971 73.1987C147.078 73.3475 147.121 73.5324 147.092 73.7131C146.895 74.8552 146.709 75.9747 146.533 77.0718C146.502 77.2524 146.4 77.4133 146.251 77.5191C146.101 77.6249 145.916 77.667 145.735 77.6362C145.603 77.6054 145.483 77.5365 145.389 77.438L145.355 77.4319ZM103.728 23.9433C103.661 23.8713 103.611 23.7861 103.58 23.6933C103.55 23.6073 103.538 23.5164 103.543 23.4256C103.548 23.3348 103.571 23.246 103.611 23.1642C103.651 23.0823 103.706 23.0091 103.774 22.9488C103.842 22.8884 103.922 22.842 104.008 22.8123C105.098 22.4376 106.207 22.1203 107.331 21.8617C107.421 21.837 107.515 21.8307 107.608 21.8433C107.7 21.8558 107.789 21.8869 107.869 21.9348C107.949 21.9826 108.019 22.0462 108.074 22.1216C108.129 22.197 108.168 22.2828 108.189 22.3738C108.21 22.4647 108.212 22.559 108.196 22.6508C108.179 22.7427 108.144 22.8303 108.093 22.9084C108.042 22.9864 107.976 23.0533 107.898 23.105C107.82 23.1567 107.733 23.1922 107.641 23.2092C106.562 23.4672 105.497 23.7811 104.45 24.1498C104.323 24.1886 104.187 24.1897 104.059 24.1531C103.93 24.1164 103.816 24.0436 103.728 23.9433ZM146.666 69.3896C146.597 69.3153 146.544 69.2267 146.513 69.13C146.482 69.0333 146.472 68.9308 146.485 68.83C146.633 67.6699 146.761 66.5483 146.867 65.4847C146.885 65.3023 146.975 65.1346 147.117 65.0184C147.259 64.9022 147.441 64.847 147.623 64.8649C147.714 64.8728 147.803 64.8986 147.884 64.941C147.965 64.9834 148.037 65.0414 148.096 65.1118C148.154 65.1821 148.198 65.2634 148.225 65.3509C148.252 65.4384 148.261 65.5304 148.253 65.6215C148.132 66.6797 148.018 67.8361 147.864 69.0106C147.839 69.1911 147.743 69.3543 147.598 69.4648C147.453 69.5752 147.27 69.6239 147.09 69.6003C146.924 69.5932 146.767 69.5229 146.651 69.4037L146.666 69.3896ZM147.362 61.2963C147.3 61.2291 147.251 61.1502 147.22 61.0642C147.189 60.9782 147.174 60.8868 147.179 60.7953C147.218 59.6608 147.224 58.53 147.203 57.4522C147.196 57.3585 147.208 57.2644 147.239 57.1756C147.269 57.0868 147.318 57.0051 147.381 56.9356C147.444 56.8661 147.521 56.8102 147.606 56.7712C147.692 56.7323 147.784 56.7112 147.878 56.7092C147.972 56.7071 148.065 56.7243 148.153 56.7595C148.24 56.7947 148.319 56.8473 148.385 56.914C148.451 56.9807 148.503 57.0602 148.537 57.1476C148.571 57.235 148.588 57.3285 148.585 57.4224C148.609 58.5347 148.603 59.685 148.558 60.8438C148.551 61.0265 148.472 61.199 148.338 61.3236C148.204 61.4483 148.027 61.5149 147.844 61.5091C147.752 61.5107 147.661 61.4939 147.575 61.4598C147.49 61.4257 147.412 61.3749 147.347 61.3104L147.362 61.2963ZM111.644 22.2874C111.555 22.1926 111.494 22.0745 111.469 21.9466C111.444 21.8187 111.455 21.6864 111.502 21.5647C111.549 21.4431 111.629 21.3371 111.733 21.259C111.837 21.1809 111.962 21.1338 112.092 21.1232C113.216 21.0207 114.387 20.9982 115.547 21.0145C115.721 21.0299 115.883 21.1104 116 21.2401C116.117 21.3697 116.181 21.5388 116.178 21.7134C116.176 21.888 116.107 22.0553 115.987 22.1816C115.866 22.3079 115.702 22.384 115.528 22.3945C114.422 22.3735 113.316 22.4098 112.214 22.5033C112.109 22.5133 112.003 22.499 111.904 22.4616C111.806 22.4241 111.717 22.3646 111.644 22.2874ZM147.069 53.1878C146.969 53.079 146.907 52.9414 146.892 52.7948C146.78 51.6599 146.603 50.557 146.391 49.4773C146.358 49.2963 146.398 49.1094 146.503 48.9579C146.607 48.8064 146.768 48.7026 146.949 48.6694C147.13 48.6362 147.316 48.6762 147.468 48.7807C147.619 48.8852 147.723 49.0455 147.756 49.2266C147.962 50.3305 148.128 51.4722 148.259 52.6274C148.268 52.7178 148.26 52.8092 148.235 52.8963C148.209 52.9835 148.166 53.0648 148.109 53.1355C148.052 53.2063 147.982 53.2651 147.902 53.3086C147.822 53.3521 147.735 53.3795 147.644 53.3892C147.539 53.4018 147.433 53.3902 147.333 53.3553C147.234 53.3204 147.143 53.2631 147.069 53.1878ZM119.752 22.5723C119.654 22.4666 119.592 22.333 119.573 22.1901C119.555 22.0472 119.582 21.9021 119.65 21.7751C119.718 21.6481 119.824 21.5456 119.953 21.4817C120.082 21.4179 120.228 21.3959 120.37 21.419C121.512 21.602 122.641 21.8542 123.751 22.1743C123.927 22.2249 124.076 22.3432 124.165 22.5032C124.254 22.6633 124.276 22.8521 124.226 23.0282C124.175 23.2041 124.057 23.3528 123.897 23.4417C123.737 23.5306 123.548 23.5525 123.372 23.5025C122.315 23.1957 121.239 22.9568 120.151 22.7871C119.996 22.7646 119.854 22.6906 119.747 22.577L119.752 22.5723ZM145.369 45.2748C145.302 45.2028 145.252 45.1176 145.221 45.0248C144.871 43.9748 144.466 42.944 144.008 41.9367C143.963 41.8531 143.936 41.7612 143.928 41.6667C143.92 41.5722 143.932 41.4772 143.962 41.3874C143.993 41.2976 144.042 41.2151 144.105 41.1449C144.169 41.0747 144.247 41.0184 144.333 40.9794C144.42 40.9404 144.513 40.9196 144.608 40.9183C144.703 40.9169 144.797 40.9351 144.884 40.9716C144.972 41.0081 145.051 41.0622 145.116 41.1306C145.182 41.199 145.233 41.2801 145.266 41.3689C145.755 42.4028 146.192 43.4607 146.575 44.5386C146.625 44.6882 146.622 44.8505 146.567 44.9984C146.513 45.1464 146.409 45.2711 146.274 45.3521C146.138 45.433 145.979 45.4653 145.823 45.4435C145.667 45.4217 145.523 45.3472 145.414 45.2323L145.369 45.2748ZM127.441 25.0261C127.366 24.9714 127.303 24.9026 127.255 24.8235C127.207 24.7444 127.175 24.6567 127.161 24.5652C127.147 24.4738 127.151 24.3805 127.173 24.2907C127.195 24.2008 127.235 24.1162 127.289 24.0416C127.344 23.967 127.413 23.9039 127.492 23.8559C127.571 23.808 127.659 23.776 127.75 23.762C127.842 23.7479 127.935 23.752 128.025 23.774C128.115 23.796 128.199 23.8354 128.274 23.8901C129.318 24.3852 130.336 24.9325 131.325 25.5298C131.482 25.6256 131.595 25.7798 131.638 25.9585C131.682 26.1373 131.652 26.3259 131.556 26.4829C131.46 26.6399 131.306 26.7524 131.128 26.7957C130.949 26.839 130.76 26.8096 130.603 26.7138C129.671 26.1445 128.709 25.6269 127.72 25.1632C127.63 25.1208 127.55 25.0596 127.486 24.9837L127.441 25.0261ZM141.865 37.974L141.776 37.8778C141.191 36.9466 140.553 36.0282 139.879 35.1525C139.767 35.007 139.718 34.8232 139.741 34.6413C139.765 34.4595 139.86 34.2945 140.006 34.1827C140.151 34.071 140.335 34.0217 140.517 34.0455C140.699 34.0693 140.864 34.1644 140.976 34.3098C141.673 35.2205 142.335 36.174 142.942 37.1403C143.055 37.2858 143.106 37.4703 143.083 37.6531C143.06 37.8359 142.965 38.0022 142.82 38.1152C142.674 38.2283 142.49 38.2789 142.307 38.2559C142.124 38.233 141.958 38.1383 141.845 37.9928L141.865 37.974ZM134.305 29.3458C134.189 29.2232 134.122 29.0623 134.116 28.8934C134.11 28.7245 134.166 28.5594 134.274 28.4291C134.391 28.288 134.559 28.199 134.741 28.1815C134.923 28.1641 135.105 28.2196 135.246 28.336C136.132 29.0623 136.995 29.8369 137.823 30.664C137.948 30.7983 138.015 30.9768 138.009 31.1602C138.002 31.3436 137.923 31.5169 137.789 31.6421C137.655 31.7672 137.476 31.8339 137.293 31.8274C137.109 31.821 136.936 31.7419 136.811 31.6077C136.026 30.8261 135.195 30.0772 134.348 29.3816L134.305 29.3458Z" fill="black"/>
<path d="M143.073 91.9425C143.005 91.8693 142.953 91.7823 142.922 91.6874C142.891 91.5925 142.88 91.4919 142.892 91.3926C142.956 90.822 143.02 90.2416 143.099 89.6667C143.11 89.5764 143.139 89.4891 143.183 89.4098C143.228 89.3306 143.288 89.2609 143.359 89.2047C143.431 89.1486 143.513 89.1071 143.6 89.0826C143.688 89.0582 143.779 89.0512 143.87 89.0621C143.99 89.3425 144.204 89.5722 144.475 89.7113C144.746 89.8505 145.058 89.8905 145.356 89.8243C145.481 89.9586 145.547 90.137 145.541 90.3204C145.535 90.5038 145.456 90.6772 145.321 90.8023C144.906 91.1892 144.486 91.5808 144.061 91.9772C143.958 92.0739 143.828 92.1367 143.688 92.1572C143.548 92.1777 143.405 92.1548 143.278 92.0916C143.202 92.0541 143.132 92.0036 143.073 91.9425Z" fill="black"/>
<path d="M148.016 87.5326L147.993 87.5073C147.878 87.3715 147.82 87.1967 147.831 87.0194C147.842 86.842 147.921 86.6756 148.051 86.5546C148.944 85.7879 149.857 85.0415 150.763 84.3194C150.906 84.2053 151.089 84.1526 151.271 84.1728C151.453 84.1929 151.619 84.2843 151.734 84.4269C151.791 84.4982 151.833 84.5801 151.858 84.6678C151.883 84.7555 151.891 84.8473 151.88 84.938C151.87 85.0286 151.842 85.1163 151.797 85.196C151.753 85.2756 151.693 85.3457 151.621 85.4022C150.73 86.1102 149.827 86.857 148.944 87.6044C148.808 87.7099 148.638 87.761 148.466 87.7477C148.295 87.7345 148.134 87.6578 148.016 87.5326ZM154.598 82.3439L154.541 82.2831C154.434 82.135 154.39 81.9505 154.418 81.7699C154.446 81.5892 154.545 81.4271 154.693 81.319C155.657 80.6185 156.636 79.943 157.563 79.3244C157.639 79.2734 157.724 79.2379 157.813 79.2199C157.903 79.2019 157.995 79.2017 158.084 79.2194C158.174 79.2371 158.259 79.2723 158.335 79.323C158.41 79.3737 158.475 79.4389 158.526 79.5149C158.577 79.5905 158.612 79.6755 158.63 79.7649C158.648 79.8543 158.649 79.9464 158.631 80.0359C158.613 80.1253 158.578 80.2104 158.527 80.2862C158.477 80.362 158.411 80.4271 158.335 80.4776C157.393 81.1006 156.435 81.767 155.47 82.4773C155.331 82.5599 155.169 82.5918 155.01 82.5675C154.851 82.5431 154.705 82.464 154.598 82.3439Z" fill="black"/>
<path d="M-52.0341 132.985C-52.1592 132.851 -52.2259 132.672 -52.2194 132.489C-52.213 132.305 -52.1339 132.132 -51.9997 132.007C-51.8654 131.882 -51.687 131.815 -51.5036 131.822C-51.3201 131.828 -51.1468 131.907 -51.0217 132.041C-50.2432 132.876 -49.3948 133.675 -48.5512 134.468C-48.4173 134.595 -48.339 134.769 -48.3336 134.952C-48.3281 135.136 -48.3959 135.315 -48.522 135.449C-48.6481 135.583 -48.8222 135.661 -49.006 135.666C-49.1899 135.672 -49.3684 135.604 -49.5022 135.478C-50.3553 134.674 -51.1976 133.842 -52.0152 133.005L-52.0341 132.985ZM-55.3699 129.406C-56.1467 128.522 -56.9029 127.609 -57.625 126.703C-57.7401 126.559 -57.7934 126.376 -57.7732 126.193C-57.753 126.01 -57.6609 125.842 -57.5173 125.727C-57.3736 125.612 -57.1902 125.559 -57.0072 125.579C-56.8243 125.599 -56.6569 125.691 -56.5419 125.835C-55.8241 126.727 -55.082 127.624 -54.3245 128.498C-54.1993 128.632 -54.1326 128.811 -54.1391 128.994C-54.1455 129.177 -54.2246 129.351 -54.3588 129.476C-54.4931 129.601 -54.6715 129.668 -54.8549 129.661C-55.0383 129.655 -55.2117 129.576 -55.3368 129.442L-55.3699 129.406ZM-45.8785 138.665C-46.0137 138.54 -46.0938 138.367 -46.1011 138.183C-46.1084 137.999 -46.0423 137.82 -45.9175 137.685C-45.7926 137.549 -45.6191 137.469 -45.4352 137.462C-45.2514 137.455 -45.0721 137.521 -44.9369 137.646C-44.0463 138.358 -43.1159 139.051 -42.1697 139.711C-42.0938 139.765 -42.0291 139.832 -41.9795 139.911C-41.9298 139.989 -41.896 140.077 -41.8802 140.168C-41.8643 140.26 -41.8666 140.354 -41.8869 140.444C-41.9072 140.535 -41.9452 140.62 -41.9987 140.696C-42.0522 140.772 -42.1201 140.837 -42.1985 140.887C-42.277 140.936 -42.3644 140.97 -42.4559 140.986C-42.5474 141.002 -42.6411 141 -42.7317 140.979C-42.8223 140.959 -42.908 140.921 -42.9839 140.867C-43.9541 140.192 -44.9084 139.483 -45.8087 138.771L-45.8785 138.665ZM-60.5033 122.783L-60.5693 122.712C-61.2456 121.753 -61.9113 120.775 -62.5285 119.808C-62.6264 119.654 -62.6592 119.467 -62.6199 119.289C-62.5806 119.11 -62.4724 118.955 -62.3188 118.856C-62.2425 118.806 -62.1572 118.772 -62.0678 118.756C-61.9784 118.739 -61.8866 118.741 -61.7977 118.76C-61.7088 118.779 -61.6245 118.815 -61.5497 118.867C-61.4748 118.918 -61.4109 118.984 -61.3615 119.061C-60.7392 120.023 -60.0927 120.99 -59.4255 121.929C-59.3091 122.072 -59.254 122.254 -59.2724 122.437C-59.2908 122.62 -59.3811 122.789 -59.5235 122.905C-59.6658 123.021 -59.8486 123.077 -60.0316 123.058C-60.2146 123.04 -60.3828 122.95 -60.4992 122.807L-60.5033 122.783ZM-64.9939 115.702L-65.1024 115.585C-65.6785 114.561 -66.2393 113.523 -66.7708 112.486C-66.8127 112.405 -66.838 112.316 -66.8455 112.225C-66.8529 112.134 -66.8423 112.043 -66.8142 111.956C-66.7861 111.869 -66.7411 111.789 -66.6818 111.719C-66.6226 111.65 -66.5501 111.593 -66.4687 111.552C-66.3059 111.468 -66.1168 111.453 -65.9426 111.509C-65.7684 111.564 -65.6233 111.687 -65.5391 111.849C-65.017 112.876 -64.4605 113.899 -63.8936 114.903C-63.8058 115.06 -63.7825 115.245 -63.8289 115.419C-63.8752 115.593 -63.9874 115.742 -64.1417 115.834C-64.2778 115.92 -64.4392 115.955 -64.5984 115.934C-64.7575 115.913 -64.9045 115.838 -65.0142 115.721L-64.9939 115.702ZM-38.9041 143.336C-39.0487 143.22 -39.1413 143.051 -39.1614 142.867C-39.1816 142.683 -39.1277 142.498 -39.0115 142.353C-38.8954 142.209 -38.7266 142.116 -38.5423 142.096C-38.3579 142.076 -38.1732 142.13 -38.0286 142.246C-37.0303 142.82 -36.0219 143.384 -34.9866 143.876C-34.905 143.916 -34.8322 143.971 -34.7722 144.04C-34.7123 144.108 -34.6663 144.188 -34.6371 144.274C-34.6078 144.36 -34.5958 144.451 -34.6017 144.541C-34.6076 144.632 -34.6313 144.721 -34.6715 144.802C-34.7121 144.884 -34.7684 144.957 -34.8373 145.017C-34.9061 145.076 -34.9861 145.122 -35.0727 145.151C-35.1592 145.18 -35.2507 145.191 -35.3416 145.184C-35.4326 145.178 -35.5214 145.153 -35.6029 145.112C-36.6423 144.596 -37.6948 144.035 -38.717 143.446C-38.7906 143.427 -38.8606 143.397 -38.9243 143.355L-38.9041 143.336ZM-68.7656 108.225C-68.8181 108.167 -68.8604 108.101 -68.8909 108.03C-69.358 106.97 -69.8092 105.877 -70.2456 104.78C-70.2787 104.695 -70.2948 104.605 -70.2929 104.514C-70.291 104.423 -70.2712 104.333 -70.2346 104.25C-70.1981 104.167 -70.1454 104.091 -70.0797 104.028C-70.014 103.965 -69.9366 103.916 -69.8518 103.883C-69.767 103.85 -69.6766 103.834 -69.5856 103.836C-69.4947 103.838 -69.405 103.857 -69.3217 103.894C-69.2384 103.931 -69.1631 103.983 -69.1002 104.049C-69.0372 104.115 -68.9879 104.192 -68.9549 104.277C-68.5277 105.354 -68.0808 106.433 -67.6228 107.472C-67.5533 107.622 -67.54 107.793 -67.5854 107.952C-67.6307 108.111 -67.7318 108.249 -67.8701 108.34C-68.0085 108.431 -68.1749 108.47 -68.3393 108.449C-68.5036 108.428 -68.6549 108.348 -68.7656 108.225ZM-31.354 146.951C-31.4575 146.836 -31.5197 146.69 -31.5307 146.536C-31.5417 146.382 -31.5009 146.229 -31.4147 146.101C-31.3286 145.973 -31.2021 145.877 -31.0554 145.829C-30.9086 145.781 -30.7501 145.784 -30.6049 145.836C-29.5226 146.246 -28.42 146.638 -27.3494 146.964C-27.2591 146.987 -27.1745 147.029 -27.1006 147.086C-27.0267 147.143 -26.9651 147.214 -26.9196 147.296C-26.874 147.377 -26.8454 147.467 -26.8355 147.56C-26.8255 147.653 -26.8344 147.747 -26.8617 147.836C-26.889 147.925 -26.934 148.008 -26.9941 148.079C-27.0542 148.151 -27.1281 148.209 -27.2114 148.251C-27.2947 148.293 -27.3856 148.318 -27.4788 148.324C-27.5719 148.33 -27.6653 148.317 -27.7533 148.286C-28.8627 147.949 -29.9989 147.542 -31.0958 147.126C-31.1941 147.088 -31.2824 147.028 -31.354 146.951ZM-71.7266 100.39C-71.7954 100.317 -71.8474 100.23 -71.8792 100.135C-72.2653 99.0001 -72.613 97.8863 -72.9165 96.7691C-72.951 96.5977 -72.9194 96.4195 -72.8279 96.2704C-72.7364 96.1213 -72.5918 96.0124 -72.4233 95.9656C-72.2548 95.9188 -72.0748 95.9376 -71.9195 96.0181C-71.7643 96.0986 -71.6452 96.235 -71.5864 96.3997C-71.2776 97.5024 -70.9302 98.626 -70.5819 99.7203C-70.5359 99.8691 -70.5415 100.029 -70.5977 100.174C-70.6539 100.319 -70.7575 100.441 -70.8916 100.521C-71.0258 100.6 -71.1827 100.631 -71.3369 100.61C-71.4912 100.589 -71.6339 100.516 -71.7418 100.404L-71.7266 100.39ZM-23.2945 149.305C-23.369 149.224 -23.4232 149.127 -23.4527 149.021C-23.4822 148.915 -23.4861 148.804 -23.4641 148.697C-23.4284 148.518 -23.3235 148.36 -23.1723 148.258C-23.0211 148.156 -22.8358 148.118 -22.6566 148.152C-21.5088 148.369 -20.3845 148.56 -19.2571 148.663C-19.1647 148.67 -19.0747 148.696 -18.9923 148.738C-18.9099 148.781 -18.8368 148.839 -18.7775 148.91C-18.7182 148.981 -18.6737 149.064 -18.6468 149.153C-18.6199 149.241 -18.6111 149.334 -18.6209 149.427C-18.6307 149.519 -18.6589 149.608 -18.7039 149.689C-18.7488 149.77 -18.8096 149.841 -18.8826 149.898C-18.9555 149.955 -19.0392 149.997 -19.1287 150.021C-19.2182 150.046 -19.3116 150.052 -19.4034 150.039C-20.5594 149.915 -21.738 149.737 -22.9054 149.519C-23.0658 149.504 -23.2157 149.433 -23.3292 149.318L-23.2945 149.305ZM-73.9442 92.2971C-74.0273 92.2051 -74.0857 92.0936 -74.114 91.9729C-74.3621 90.8136 -74.5856 89.6503 -74.7758 88.5126C-74.7908 88.4227 -74.788 88.3307 -74.7674 88.2418C-74.7468 88.153 -74.7089 88.0691 -74.6558 87.995C-74.6027 87.9209 -74.5355 87.858 -74.458 87.81C-74.3805 87.7619 -74.2943 87.7297 -74.2043 87.715C-74.0241 87.6858 -73.8397 87.729 -73.6912 87.835C-73.5427 87.9411 -73.4422 88.1016 -73.4114 88.2815C-73.2206 89.3996 -73.0062 90.543 -72.7573 91.6828C-72.7198 91.862 -72.7549 92.0487 -72.8548 92.2021C-72.9547 92.3555 -73.1113 92.4631 -73.2904 92.5013C-73.4077 92.5269 -73.5297 92.5216 -73.6443 92.4858C-73.759 92.45 -73.8623 92.385 -73.9442 92.2971ZM-14.9867 150.028C-15.102 149.906 -15.1695 149.747 -15.1766 149.58C-15.1831 149.397 -15.1165 149.219 -14.9915 149.084C-14.8665 148.95 -14.6934 148.871 -14.5101 148.864C-13.3766 148.825 -12.2465 148.719 -11.1255 148.548C-10.949 148.531 -10.7729 148.584 -10.6338 148.694C-10.4947 148.804 -10.4031 148.963 -10.3778 149.138C-10.3526 149.314 -10.3957 149.492 -10.4982 149.637C-10.6007 149.781 -10.7548 149.881 -10.9288 149.916C-12.1056 150.086 -13.2911 150.19 -14.4796 150.227C-14.5732 150.229 -14.6664 150.213 -14.7536 150.179C-14.8407 150.145 -14.92 150.093 -14.9867 150.028ZM-6.76487 148.598C-6.8313 148.526 -6.8817 148.441 -6.91277 148.348C-6.97124 148.174 -6.95857 147.985 -6.87755 147.821C-6.79653 147.657 -6.65376 147.531 -6.4805 147.472C-5.40562 147.106 -4.35646 146.669 -3.34014 146.163C-3.25803 146.116 -3.16722 146.086 -3.07329 146.076C-2.97935 146.066 -2.88429 146.075 -2.79397 146.102C-2.70366 146.13 -2.62 146.176 -2.54815 146.238C-2.4763 146.299 -2.41779 146.375 -2.37622 146.459C-2.33466 146.544 -2.31091 146.637 -2.30644 146.731C-2.30198 146.826 -2.31692 146.92 -2.35031 147.008C-2.3837 147.097 -2.43484 147.177 -2.50058 147.245C-2.56632 147.313 -2.64527 147.367 -2.73257 147.403C-3.80091 147.938 -4.90498 148.398 -6.03686 148.78C-6.15956 148.822 -6.29153 148.829 -6.41773 148.799C-6.54394 148.769 -6.65932 148.705 -6.75071 148.613L-6.76487 148.598ZM0.0772277 148.256L-0.205872 147.952C-0.331007 147.818 -0.397698 147.639 -0.391249 147.456C-0.384804 147.272 -0.305752 147.099 -0.171509 146.974C-0.0372547 146.849 0.141196 146.782 0.324614 146.789C0.508027 146.795 0.681369 146.874 0.806504 147.008L1.08017 147.302C1.75488 148.026 2.47848 148.751 3.22706 149.463C3.35837 149.59 3.43413 149.764 3.43781 149.947C3.44148 150.129 3.37277 150.306 3.24667 150.438C3.12096 150.571 2.94781 150.648 2.76506 150.654C2.5823 150.659 2.40478 150.592 2.27131 150.468C1.51834 149.741 0.77081 149 0.0772277 148.256ZM-3.32504 144.2L-3.36751 144.154C-4.09841 143.218 -4.80432 142.268 -5.47148 141.329C-5.57917 141.178 -5.62264 140.991 -5.59234 140.808C-5.56206 140.626 -5.46048 140.463 -5.30996 140.355C-5.15945 140.247 -4.97233 140.204 -4.78974 140.234C-4.60717 140.264 -4.4441 140.366 -4.33642 140.517C-3.67837 141.436 -2.98658 142.371 -2.2557 143.307C-2.1366 143.447 -2.07795 143.628 -2.09265 143.811C-2.10735 143.995 -2.19421 144.164 -2.33408 144.283C-2.47397 144.403 -2.65541 144.461 -2.83853 144.447C-3.02166 144.432 -3.19145 144.345 -3.31054 144.205L-3.32504 144.2ZM5.9291 153.661C5.86249 153.599 5.80877 153.524 5.77099 153.441C5.73323 153.358 5.71217 153.269 5.709 153.178C5.70584 153.087 5.72063 152.996 5.75254 152.911C5.78446 152.825 5.83287 152.747 5.895 152.681C5.95715 152.614 6.03178 152.56 6.11469 152.522C6.19758 152.485 6.28712 152.464 6.37816 152.46C6.4692 152.457 6.55997 152.472 6.64528 152.504C6.73061 152.536 6.80881 152.584 6.87542 152.646C7.75148 153.353 8.67645 154.061 9.62166 154.75C9.76952 154.858 9.86858 155.021 9.89709 155.201C9.92561 155.382 9.88128 155.567 9.7738 155.715C9.66581 155.863 9.50362 155.962 9.32275 155.991C9.14188 156.019 8.95708 155.975 8.80883 155.867C7.8444 155.168 6.90529 154.444 6.01944 153.738L5.9291 153.661ZM-8.14195 137.347L-8.2316 137.251C-8.86194 136.24 -9.46225 135.21 -10.0238 134.192C-10.1123 134.031 -10.1332 133.841 -10.082 133.665C-10.0309 133.489 -9.91174 133.34 -9.75086 133.251C-9.58998 133.163 -9.40053 133.142 -9.2242 133.193C-9.04787 133.244 -8.89908 133.364 -8.81059 133.524C-8.26759 134.513 -7.68109 135.518 -7.06961 136.509C-6.95724 136.655 -6.9075 136.839 -6.93137 137.022C-6.95524 137.205 -7.05076 137.371 -7.19689 137.483C-7.34303 137.596 -7.52781 137.645 -7.71061 137.622C-7.89342 137.598 -8.05926 137.502 -8.17164 137.356L-8.14195 137.347ZM12.7438 158.557C12.633 158.445 12.5636 158.299 12.5468 158.143C12.53 157.986 12.567 157.829 12.6517 157.697C12.7005 157.62 12.7641 157.553 12.8387 157.501C12.9133 157.449 12.9975 157.412 13.0864 157.392C13.1754 157.373 13.2673 157.371 13.357 157.387C13.4466 157.403 13.5322 157.436 13.6089 157.485C14.5619 158.092 15.5639 158.7 16.5715 159.284C16.6503 159.329 16.7193 159.39 16.7745 159.463C16.8297 159.535 16.8701 159.618 16.8933 159.706C16.9166 159.794 16.9223 159.886 16.9101 159.976C16.8979 160.067 16.868 160.154 16.8222 160.232C16.7763 160.311 16.7154 160.38 16.6429 160.435C16.5704 160.491 16.4878 160.531 16.3996 160.554C16.3115 160.578 16.2197 160.583 16.1294 160.571C16.0391 160.559 15.9521 160.529 15.8733 160.483C14.8515 159.884 13.8148 159.29 12.8679 158.649C12.8223 158.617 12.7823 158.578 12.7496 158.532L12.7438 158.557ZM0.621831 144.74L0.541621 144.654C0.488024 144.58 0.449543 144.496 0.428401 144.408C0.407243 144.319 0.403837 144.227 0.418385 144.137C0.432923 144.047 0.465125 143.961 0.513119 143.883C0.561112 143.805 0.623963 143.738 0.698064 143.685C1.61744 143.01 2.50229 142.29 3.34927 141.526C3.48353 141.401 3.66198 141.334 3.8454 141.341C4.02882 141.347 4.20215 141.426 4.32728 141.56C4.45242 141.695 4.51911 141.873 4.51266 142.056C4.50622 142.24 4.42718 142.413 4.29292 142.538C3.41165 143.337 2.488 144.087 1.52598 144.786C1.3926 144.886 1.22786 144.934 1.06193 144.922C0.89602 144.91 0.740016 144.838 0.622507 144.72L0.621831 144.74ZM-12.0722 129.924C-12.133 129.877 -12.1856 129.821 -12.2279 129.757C-12.7132 128.658 -13.1492 127.55 -13.5323 126.47C-13.5717 126.383 -13.5927 126.288 -13.5938 126.192C-13.5949 126.097 -13.5762 126.002 -13.5388 125.914C-13.5014 125.826 -13.4462 125.747 -13.3766 125.681C-13.307 125.615 -13.2245 125.565 -13.1344 125.533C-13.0443 125.5 -12.9485 125.487 -12.8531 125.494C-12.7577 125.501 -12.6647 125.527 -12.58 125.572C-12.4953 125.616 -12.4208 125.678 -12.3611 125.753C-12.3014 125.827 -12.2578 125.914 -12.2332 126.006C-11.8589 127.057 -11.4454 128.11 -10.9598 129.199C-10.8963 129.348 -10.8873 129.515 -10.9341 129.67C-10.981 129.825 -11.0809 129.959 -11.2163 130.048C-11.3517 130.137 -11.5141 130.176 -11.6752 130.158C-11.8362 130.139 -11.9857 130.065 -12.0975 129.947L-12.0722 129.924ZM20.0164 162.685C19.9176 162.581 19.8536 162.449 19.8331 162.307C19.8127 162.165 19.8368 162.02 19.9022 161.893C19.9441 161.812 20.0016 161.74 20.0713 161.681C20.1411 161.622 20.2218 161.578 20.3087 161.551C20.3957 161.523 20.4872 161.513 20.578 161.521C20.6689 161.529 20.7572 161.555 20.838 161.598C21.8524 162.128 22.9016 162.644 23.9464 163.146C24.1038 163.23 24.2227 163.372 24.2783 163.541C24.334 163.71 24.322 163.895 24.245 164.056C24.168 164.216 24.0319 164.341 23.865 164.404C23.6981 164.467 23.5134 164.463 23.3494 164.393C22.29 163.886 21.2314 163.359 20.1974 162.828C20.1356 162.794 20.0793 162.751 20.0305 162.7L20.0164 162.685ZM-14.7364 122.001C-14.8197 121.913 -14.8783 121.805 -14.9065 121.687C-15.1738 120.517 -15.4058 119.314 -15.5376 118.188C-15.5495 118.098 -15.5434 118.006 -15.5196 117.918C-15.4959 117.83 -15.4549 117.747 -15.3992 117.675C-15.3434 117.603 -15.2739 117.542 -15.1946 117.497C-15.1154 117.452 -15.028 117.423 -14.9374 117.411C-14.7562 117.389 -14.5734 117.438 -14.4287 117.55C-14.284 117.661 -14.1893 117.826 -14.1652 118.007C-14.0182 119.118 -13.8132 120.252 -13.559 121.377C-13.5268 121.524 -13.5437 121.678 -13.6072 121.815C-13.6708 121.952 -13.7774 122.065 -13.9108 122.136C-14.0442 122.206 -14.1971 122.232 -14.3462 122.207C-14.4953 122.183 -14.6323 122.111 -14.7364 122.001ZM27.6019 166.266C27.4919 166.15 27.4255 165.999 27.414 165.84C27.4026 165.68 27.4468 165.522 27.5391 165.391C27.6314 165.26 27.7662 165.166 27.9204 165.123C28.0746 165.081 28.2389 165.093 28.3851 165.158C29.4414 165.611 30.5223 166.06 31.5945 166.48C31.6799 166.513 31.7577 166.563 31.8236 166.627C31.8895 166.691 31.9421 166.767 31.9783 166.851C32.0145 166.935 32.0336 167.026 32.0346 167.117C32.0355 167.209 32.0183 167.3 31.9838 167.385C31.9155 167.555 31.7823 167.691 31.6136 167.763C31.4449 167.835 31.2544 167.837 31.0841 167.769C30.0025 167.34 28.907 166.885 27.8362 166.426C27.7521 166.391 27.6757 166.341 27.6114 166.276L27.6019 166.266ZM6.74267 139.006C6.62468 138.881 6.55761 138.716 6.55461 138.544C6.5516 138.372 6.61286 138.205 6.72642 138.075C7.45611 137.234 8.18315 136.33 8.87716 135.389C8.98889 135.24 9.15535 135.141 9.33991 135.115C9.52449 135.088 9.71206 135.136 9.86136 135.248C10.0107 135.36 10.1095 135.526 10.136 135.711C10.1626 135.895 10.1148 136.083 10.003 136.232C9.28843 137.201 8.54586 138.129 7.79052 139.004C7.73091 139.072 7.65836 139.129 7.577 139.169C7.49564 139.21 7.40706 139.234 7.31635 139.24C7.22564 139.247 7.13458 139.235 7.04834 139.206C6.96212 139.178 6.88239 139.132 6.81379 139.072L6.74267 139.006ZM35.4114 169.326C35.3049 169.213 35.2397 169.067 35.2263 168.912C35.2129 168.757 35.2521 168.602 35.3375 168.472C35.423 168.342 35.5498 168.245 35.6974 168.196C35.845 168.147 36.0048 168.149 36.1511 168.202C37.2344 168.583 38.3275 168.964 39.4409 169.326C39.6182 169.382 39.7661 169.505 39.8521 169.67C39.9381 169.835 39.9552 170.027 39.8997 170.204C39.8441 170.381 39.7204 170.529 39.5558 170.615C39.3912 170.701 39.1991 170.718 39.0219 170.663C37.899 170.29 36.7929 169.909 35.7033 169.518C35.5957 169.482 35.4987 169.419 35.4208 169.337L35.4114 169.326ZM-15.6392 113.695C-15.7601 113.564 -15.826 113.392 -15.823 113.214C-15.8042 112.023 -15.7215 110.835 -15.5755 109.653C-15.5706 109.558 -15.5461 109.465 -15.5037 109.38C-15.4613 109.295 -15.4018 109.22 -15.3289 109.159C-15.2561 109.098 -15.1714 109.052 -15.0802 109.025C-14.989 108.998 -14.8933 108.991 -14.799 109.002C-14.7046 109.014 -14.6137 109.045 -14.5319 109.094C-14.4501 109.142 -14.3792 109.207 -14.3235 109.284C-14.2678 109.361 -14.2286 109.449 -14.2084 109.542C-14.1881 109.634 -14.1872 109.73 -14.2057 109.824C-14.3486 110.952 -14.4309 112.086 -14.4524 113.223C-14.4594 113.405 -14.5384 113.578 -14.6721 113.703C-14.8058 113.827 -14.9834 113.894 -15.1661 113.888C-15.338 113.887 -15.5033 113.822 -15.6298 113.705L-15.6392 113.695ZM43.374 171.932C43.2921 171.844 43.2345 171.736 43.2068 171.619C43.1792 171.503 43.1824 171.381 43.2162 171.265C43.2679 171.089 43.3873 170.941 43.5484 170.853C43.7094 170.765 43.8987 170.745 44.0748 170.796C45.1795 171.129 46.2945 171.442 47.4245 171.751C47.6002 171.8 47.7496 171.916 47.8403 172.074C47.931 172.232 47.9557 172.419 47.9089 172.596C47.8854 172.683 47.8447 172.766 47.7893 172.838C47.7338 172.91 47.6646 172.971 47.5857 173.016C47.5068 173.062 47.4197 173.091 47.3293 173.103C47.239 173.115 47.1473 173.108 47.0594 173.085C45.9197 172.775 44.7999 172.457 43.6854 172.124C43.5738 172.086 43.4746 172.018 43.3986 171.928L43.374 171.932ZM-14.4332 105.429C-14.5134 105.342 -14.5701 105.236 -14.5978 105.121C-14.6255 105.006 -14.6232 104.886 -14.5913 104.772C-14.288 103.666 -13.9308 102.558 -13.4933 101.393C-13.4288 101.222 -13.2987 101.082 -13.1317 101.007C-12.9647 100.931 -12.7745 100.924 -12.6027 100.989C-12.431 101.053 -12.292 101.183 -12.2161 101.35C-12.1403 101.517 -12.1339 101.708 -12.1982 101.879C-12.6148 103.005 -12.9808 104.084 -13.2627 105.142C-13.3113 105.318 -13.4272 105.467 -13.5853 105.558C-13.7435 105.648 -13.931 105.673 -14.1072 105.626C-14.2322 105.592 -14.3451 105.524 -14.4332 105.429ZM11.6427 132.206C11.5329 132.097 11.4627 131.955 11.4432 131.802C11.4238 131.649 11.4562 131.493 11.5353 131.36C12.1228 130.387 12.6732 129.354 13.2225 128.35C13.2646 128.269 13.3222 128.197 13.392 128.139C13.4617 128.08 13.5424 128.036 13.6293 128.008C13.7162 127.981 13.8076 127.971 13.8984 127.979C13.9891 127.987 14.0775 128.013 14.1583 128.055C14.2391 128.097 14.3108 128.154 14.3694 128.224C14.428 128.294 14.4722 128.374 14.4997 128.461C14.5271 128.548 14.5371 128.64 14.5292 128.73C14.5212 128.821 14.4955 128.91 14.4534 128.99C13.9023 130.043 13.3226 131.076 12.7196 132.073C12.6251 132.228 12.473 132.34 12.2964 132.384C12.1198 132.429 11.9329 132.402 11.7762 132.309C11.7342 132.28 11.6959 132.245 11.6623 132.207L11.6427 132.206ZM51.4892 174.092C51.4103 174.008 51.3536 173.906 51.3241 173.795C51.2947 173.683 51.2935 173.567 51.3207 173.455C51.3421 173.366 51.3809 173.282 51.4348 173.208C51.4888 173.135 51.5567 173.072 51.6349 173.025C51.713 172.978 51.7997 172.946 51.89 172.933C51.9804 172.919 52.0725 172.924 52.1611 172.946C53.2811 173.213 54.4111 173.475 55.551 173.731C55.6465 173.743 55.7384 173.774 55.8208 173.824C55.9033 173.874 55.9745 173.94 56.0299 174.018C56.0854 174.097 56.1238 174.186 56.1428 174.281C56.1617 174.375 56.1608 174.472 56.1401 174.566C56.1194 174.66 56.0793 174.749 56.0224 174.826C55.9655 174.904 55.893 174.969 55.8096 175.017C55.7263 175.065 55.6338 175.095 55.5381 175.105C55.4424 175.115 55.3457 175.106 55.254 175.076C54.0873 174.84 52.9661 174.56 51.8348 174.29C51.7072 174.261 51.5906 174.196 51.4987 174.102L51.4892 174.092ZM59.7103 175.889C59.6357 175.809 59.5809 175.713 59.5506 175.608C59.5202 175.503 59.5151 175.393 59.5357 175.286C59.5528 175.196 59.5874 175.111 59.6375 175.035C59.6877 174.959 59.7523 174.893 59.8278 174.842C59.9033 174.791 59.9881 174.756 60.0774 174.737C60.1667 174.719 60.2587 174.719 60.3481 174.736C61.4913 174.948 62.6297 175.154 63.754 175.346C63.8497 175.354 63.9427 175.382 64.0271 175.428C64.1114 175.474 64.1852 175.537 64.2438 175.613C64.3025 175.689 64.3446 175.777 64.3675 175.87C64.3905 175.963 64.3937 176.06 64.3771 176.155C64.3604 176.25 64.3243 176.34 64.2709 176.42C64.2175 176.5 64.1481 176.567 64.067 176.619C63.986 176.671 63.895 176.705 63.8001 176.719C63.7051 176.734 63.6081 176.728 63.5153 176.703C62.3632 176.516 61.2185 176.303 60.0812 176.064C59.936 176.043 59.8011 175.976 59.6962 175.874L59.7103 175.889ZM-11.085 97.7861C-11.1978 97.6699 -11.2662 97.5179 -11.2784 97.3564C-11.2907 97.195 -11.2459 97.0343 -11.1519 96.9025C-10.4551 95.9187 -9.67575 94.9961 -8.82235 94.1446C-8.69184 94.0154 -8.5154 93.9434 -8.33179 93.9444C-8.14818 93.9453 -7.97246 94.0191 -7.8433 94.1496C-7.71414 94.2801 -7.64211 94.4566 -7.64305 94.6402C-7.644 94.8238 -7.71783 94.9995 -7.84832 95.1287C-8.64479 95.9251 -9.37279 96.7873 -10.0246 97.7059C-10.0773 97.7799 -10.1442 97.8428 -10.2212 97.891C-10.2983 97.9393 -10.3841 97.9718 -10.4737 97.9868C-10.5634 98.0019 -10.6551 97.9991 -10.7437 97.9787C-10.8322 97.9583 -10.9159 97.9206 -10.9899 97.8678L-11.085 97.7861ZM15.4353 124.736C15.3447 124.638 15.2842 124.517 15.261 124.386C15.2378 124.255 15.253 124.12 15.3046 123.997C15.7528 122.945 16.1626 121.873 16.5633 120.78C16.5939 120.695 16.6412 120.616 16.7023 120.548C16.7634 120.481 16.8373 120.426 16.9195 120.387C17.0018 120.348 17.091 120.326 17.1819 120.321C17.2728 120.317 17.3638 120.33 17.4495 120.361C17.5352 120.392 17.6141 120.439 17.6815 120.5C17.749 120.561 17.8037 120.635 17.8427 120.717C17.8816 120.8 17.904 120.889 17.9084 120.98C17.9129 121.071 17.8995 121.162 17.8688 121.247C17.4674 122.359 17.032 123.465 16.5831 124.536C16.5474 124.62 16.4956 124.696 16.4305 124.759C16.3656 124.823 16.2887 124.873 16.2043 124.907C16.1199 124.941 16.0296 124.958 15.9387 124.957C15.8477 124.956 15.7579 124.937 15.6743 124.901C15.5881 124.865 15.51 124.813 15.4447 124.746L15.4353 124.736ZM67.9563 177.256C67.8594 177.151 67.7975 177.018 67.779 176.876C67.7605 176.735 67.7864 176.591 67.8531 176.464C67.9198 176.338 68.024 176.235 68.1515 176.17C68.2789 176.105 68.4233 176.082 68.5648 176.102C69.7113 176.263 70.863 176.42 72.0196 176.571C72.1924 176.605 72.3458 176.703 72.4486 176.846C72.5514 176.989 72.5958 177.166 72.5728 177.341C72.5498 177.515 72.4612 177.675 72.3249 177.786C72.1886 177.897 72.015 177.953 71.8393 177.941C70.6793 177.792 69.5211 177.636 68.3649 177.471C68.2128 177.449 68.0723 177.377 67.9657 177.266L67.9563 177.256ZM-4.99049 92.1054C-5.02698 92.0767 -5.05881 92.0426 -5.08485 92.0041C-5.17963 91.8486 -5.20925 91.6619 -5.16728 91.4846C-5.1253 91.3074 -5.01513 91.1538 -4.86064 91.0573C-3.83422 90.4257 -2.75352 89.8869 -1.6314 89.4473C-1.46024 89.3806 -1.2696 89.3846 -1.10141 89.4585C-0.933212 89.5323 -0.801244 89.67 -0.734539 89.8411C-0.667843 90.0123 -0.671861 90.2029 -0.745725 90.3711C-0.819578 90.5393 -0.957227 90.6713 -1.12837 90.738C-2.17392 91.1484 -3.18115 91.6504 -4.13834 92.2381C-4.27443 92.3157 -4.43282 92.3449 -4.58762 92.3208C-4.74242 92.2966 -4.88445 92.2207 -4.99049 92.1054ZM18.1998 116.843C18.1195 116.756 18.0629 116.65 18.0352 116.535C18.0075 116.42 18.0098 116.3 18.0417 116.186C18.1263 115.871 18.2108 115.555 18.2906 115.235C18.5042 114.449 18.6545 113.656 18.8047 112.864C18.8351 112.682 18.9363 112.52 19.0861 112.414C19.2358 112.307 19.4219 112.264 19.6032 112.294C19.7846 112.325 19.9465 112.426 20.0532 112.576C20.16 112.726 20.2029 112.912 20.1725 113.093C20.0202 113.944 19.8537 114.781 19.6542 115.582C19.5791 115.907 19.4845 116.232 19.3996 116.557C19.3761 116.645 19.3354 116.727 19.28 116.799C19.2245 116.872 19.1553 116.932 19.0764 116.978C18.9975 117.023 18.9104 117.052 18.82 117.064C18.7297 117.076 18.638 117.07 18.5501 117.046C18.4094 117.026 18.2783 116.963 18.1745 116.866L18.1998 116.843ZM76.3016 178.303C76.2347 178.231 76.1839 178.146 76.1526 178.053C76.1212 177.96 76.1101 177.861 76.1199 177.763C76.1381 177.581 76.228 177.413 76.3698 177.297C76.5115 177.181 76.6936 177.125 76.8761 177.143C78.0274 177.262 79.184 177.37 80.3458 177.466C80.4401 177.468 80.5329 177.49 80.6185 177.53C80.7042 177.569 80.7808 177.626 80.8437 177.696C80.9066 177.766 80.9545 177.849 80.9844 177.938C81.0143 178.028 81.0257 178.122 81.0177 178.216C81.0097 178.31 80.9826 178.402 80.938 178.485C80.8934 178.568 80.8323 178.641 80.7585 178.7C80.6846 178.758 80.5995 178.801 80.5085 178.826C80.4174 178.85 80.3223 178.856 80.2289 178.843C79.0637 178.749 77.9005 178.642 76.7396 178.519C76.5674 178.502 76.4078 178.422 76.2922 178.293L76.3016 178.303ZM84.6651 178.974C84.6018 178.906 84.553 178.825 84.5216 178.737C84.4901 178.65 84.4768 178.556 84.4823 178.463C84.4893 178.281 84.5682 178.108 84.702 177.983C84.8357 177.859 85.0133 177.792 85.196 177.798C86.3557 177.865 87.5157 177.922 88.676 177.969C88.8587 177.976 89.0312 178.055 89.1559 178.189C89.2805 178.323 89.3472 178.5 89.3413 178.683C89.3385 178.774 89.3176 178.864 89.2799 178.947C89.2421 179.031 89.1883 179.105 89.1215 179.168C89.0546 179.23 88.9762 179.278 88.8905 179.31C88.8049 179.342 88.7138 179.357 88.6225 179.353C87.4492 179.302 86.2861 179.242 85.1182 179.176C84.9427 179.167 84.7773 179.091 84.6556 178.964L84.6651 178.974ZM19.3721 108.56C19.2534 108.432 19.1876 108.264 19.1879 108.089C19.184 106.952 19.1144 105.817 18.9794 104.688C18.9581 104.507 19.0092 104.325 19.1215 104.181C19.2338 104.038 19.3983 103.944 19.5792 103.921C19.6696 103.909 19.7616 103.915 19.8497 103.939C19.9378 103.963 20.0203 104.004 20.0925 104.06C20.1647 104.115 20.2252 104.185 20.2705 104.264C20.3157 104.343 20.3448 104.431 20.3562 104.521C20.5013 105.708 20.5754 106.903 20.5781 108.098C20.5777 108.281 20.5049 108.457 20.3756 108.586C20.2462 108.716 20.0709 108.789 19.888 108.789C19.7884 108.789 19.6899 108.768 19.5992 108.727C19.5086 108.686 19.4279 108.626 19.3627 108.55L19.3721 108.56ZM2.88815 89.4348C2.78152 89.3219 2.71592 89.1765 2.70192 89.0218C2.68676 88.8396 2.74437 88.6588 2.86213 88.5189C2.9799 88.379 3.14824 88.2914 3.33039 88.2752C4.54833 88.1662 5.77497 88.2044 6.98379 88.3889C7.16588 88.4174 7.32919 88.517 7.43781 88.6659C7.54644 88.8148 7.59147 89.0007 7.56299 89.1828C7.53453 89.3649 7.43489 89.5282 7.28599 89.6369C7.1371 89.7455 6.95115 89.7905 6.76906 89.7621C5.67244 89.5897 4.55869 89.5539 3.45326 89.6553C3.34615 89.6641 3.23846 89.6479 3.13874 89.6078C3.03902 89.5678 2.94999 89.5051 2.87871 89.4246L2.88815 89.4348ZM18.0902 100.314C18.0238 100.242 17.9734 100.157 17.9423 100.064C17.5863 98.9972 17.136 97.9638 16.5967 96.9766C16.5082 96.8157 16.4872 96.6263 16.5384 96.4499C16.5896 96.2736 16.7087 96.1248 16.8696 96.0363C17.0305 95.9478 17.2199 95.9269 17.3963 95.9781C17.5726 96.0293 17.7214 96.1484 17.8099 96.3093C18.3878 97.3679 18.87 98.4762 19.2505 99.6207C19.3089 99.7942 19.2963 99.9838 19.2153 100.148C19.1342 100.312 18.9915 100.437 18.8182 100.497C18.69 100.54 18.5517 100.545 18.4206 100.511C18.2895 100.477 18.1714 100.405 18.0808 100.304L18.0902 100.314ZM93.046 179.288C92.925 179.157 92.8592 178.985 92.8622 178.807C92.8691 178.624 92.9481 178.452 93.0818 178.327C93.2155 178.202 93.3931 178.136 93.5759 178.141C94.7374 178.156 95.8991 178.164 97.061 178.166C97.2437 178.173 97.4162 178.252 97.5409 178.386C97.6655 178.519 97.7322 178.697 97.7263 178.88C97.7259 179.063 97.6531 179.238 97.5238 179.367C97.3945 179.497 97.2191 179.57 97.0362 179.57C95.8675 179.575 94.6976 179.568 93.5264 179.55C93.4303 179.541 93.3371 179.512 93.2527 179.466C93.1684 179.419 93.0947 179.355 93.0365 179.278L93.046 179.288ZM10.9838 91.1782C10.8385 91.0627 10.7451 90.8943 10.724 90.7099C10.703 90.5255 10.756 90.3403 10.8715 90.1951C10.9869 90.0498 11.1554 89.9563 11.3398 89.9353C11.5242 89.9142 11.7094 89.9672 11.8546 90.0827C12.9182 90.6877 13.9022 91.423 14.7839 92.2714C14.8496 92.3345 14.9021 92.4098 14.9386 92.4932C14.9751 92.5766 14.9948 92.6663 14.9966 92.7573C14.9984 92.8483 14.9823 92.9388 14.9491 93.0235C14.916 93.1083 14.8664 93.1857 14.8034 93.2513C14.7403 93.3169 14.6649 93.3695 14.5816 93.406C14.4982 93.4424 14.4084 93.4621 14.3174 93.464C14.2265 93.4658 14.136 93.4496 14.0512 93.4165C13.9665 93.3833 13.8891 93.3338 13.8235 93.2707C13.0237 92.5029 12.1309 91.8383 11.1659 91.2923C11.0853 91.2566 11.0123 91.2059 10.9508 91.1428L10.9838 91.1782ZM101.439 179.26C101.324 179.137 101.259 178.976 101.254 178.808C101.251 178.716 101.266 178.625 101.298 178.539C101.331 178.454 101.38 178.375 101.443 178.309C101.506 178.242 101.581 178.189 101.665 178.152C101.749 178.114 101.839 178.094 101.93 178.092C103.087 178.068 104.247 178.027 105.411 177.97C105.594 177.962 105.773 178.027 105.908 178.151C105.975 178.213 106.03 178.287 106.068 178.369C106.106 178.452 106.128 178.541 106.132 178.632C106.136 178.722 106.122 178.813 106.091 178.898C106.059 178.984 106.012 179.062 105.95 179.129C105.889 179.196 105.815 179.25 105.732 179.289C105.65 179.327 105.561 179.349 105.47 179.353C104.298 179.404 103.131 179.442 101.965 179.479C101.867 179.482 101.769 179.464 101.678 179.426C101.588 179.388 101.506 179.332 101.439 179.26ZM109.821 178.854C109.733 178.759 109.673 178.641 109.649 178.513C109.625 178.386 109.637 178.254 109.684 178.133C109.731 178.012 109.812 177.907 109.916 177.83C110.02 177.752 110.143 177.706 110.273 177.695C111.448 177.602 112.605 177.511 113.744 177.42C113.834 177.412 113.926 177.422 114.013 177.449C114.099 177.477 114.18 177.521 114.25 177.579C114.32 177.637 114.377 177.709 114.419 177.79C114.461 177.87 114.487 177.958 114.495 178.049C114.503 178.14 114.493 178.231 114.466 178.318C114.439 178.405 114.395 178.485 114.337 178.555C114.278 178.625 114.207 178.682 114.126 178.724C114.045 178.767 113.957 178.792 113.867 178.801C112.701 178.903 111.531 179.001 110.356 179.093C110.25 179.095 110.145 179.073 110.048 179.028C109.952 178.983 109.868 178.917 109.802 178.834L109.821 178.854ZM118.171 178.09C118.07 177.983 118.007 177.847 117.989 177.702C117.978 177.611 117.986 177.52 118.011 177.432C118.036 177.345 118.078 177.263 118.134 177.192C118.191 177.121 118.261 177.061 118.341 177.017C118.42 176.973 118.508 176.945 118.598 176.935C119.739 176.805 120.891 176.661 122.055 176.503C122.237 176.479 122.421 176.528 122.567 176.64C122.713 176.751 122.808 176.916 122.833 177.098C122.857 177.28 122.807 177.464 122.696 177.61C122.584 177.756 122.419 177.851 122.237 177.875C121.076 178.031 119.911 178.171 118.741 178.296C118.632 178.308 118.522 178.293 118.419 178.254C118.317 178.215 118.225 178.152 118.152 178.07L118.171 178.09ZM126.495 176.953C126.409 176.861 126.35 176.748 126.324 176.625C126.297 176.502 126.305 176.374 126.346 176.255C126.387 176.136 126.46 176.031 126.556 175.95C126.652 175.869 126.769 175.816 126.893 175.797C128.045 175.612 129.188 175.417 130.341 175.213C130.43 175.197 130.522 175.199 130.611 175.219C130.7 175.238 130.784 175.275 130.859 175.327C130.933 175.38 130.997 175.446 131.046 175.523C131.094 175.599 131.128 175.685 131.144 175.775C131.159 175.864 131.157 175.956 131.138 176.045C131.118 176.134 131.081 176.218 131.029 176.292C130.977 176.367 130.91 176.43 130.834 176.479C130.757 176.528 130.671 176.562 130.582 176.577C129.429 176.782 128.271 176.981 127.114 177.161C126.996 177.181 126.875 177.17 126.762 177.129C126.649 177.088 126.549 177.019 126.471 176.928L126.495 176.953ZM134.769 175.427C134.682 175.335 134.622 175.221 134.595 175.098C134.557 174.919 134.592 174.732 134.692 174.578C134.792 174.425 134.949 174.317 135.128 174.279C136.269 174.042 137.405 173.793 138.537 173.533C138.627 173.508 138.721 173.501 138.814 173.514C138.906 173.527 138.995 173.558 139.075 173.606C139.155 173.653 139.225 173.717 139.28 173.792C139.335 173.868 139.374 173.954 139.395 174.045C139.416 174.136 139.418 174.23 139.402 174.322C139.385 174.413 139.351 174.501 139.299 174.579C139.248 174.657 139.182 174.724 139.104 174.776C139.026 174.828 138.939 174.863 138.847 174.88C137.706 175.137 136.561 175.387 135.413 175.631C135.292 175.656 135.165 175.648 135.048 175.608C134.93 175.568 134.826 175.496 134.746 175.402L134.769 175.427ZM142.93 173.496C142.853 173.412 142.798 173.311 142.769 173.201C142.746 173.113 142.74 173.021 142.752 172.93C142.764 172.84 142.794 172.753 142.84 172.674C142.886 172.595 142.947 172.526 143.02 172.47C143.093 172.415 143.176 172.375 143.264 172.352C144.391 172.059 145.528 171.736 146.631 171.437C146.718 171.413 146.81 171.406 146.9 171.417C146.991 171.427 147.078 171.456 147.157 171.501C147.237 171.545 147.307 171.605 147.363 171.677C147.419 171.748 147.461 171.83 147.485 171.918C147.51 172.005 147.517 172.097 147.506 172.188C147.495 172.278 147.467 172.365 147.422 172.445C147.377 172.524 147.318 172.594 147.246 172.65C147.174 172.706 147.092 172.748 147.005 172.772C145.884 173.092 144.753 173.398 143.614 173.691C143.491 173.724 143.361 173.722 143.238 173.686C143.116 173.65 143.006 173.581 142.921 173.486L142.93 173.496ZM151.007 171.17C150.938 171.095 150.885 171.006 150.85 170.91C150.822 170.823 150.812 170.731 150.82 170.64C150.829 170.549 150.855 170.461 150.897 170.38C150.939 170.299 150.997 170.227 151.068 170.169C151.138 170.11 151.219 170.067 151.307 170.04C152.409 169.693 153.512 169.331 154.615 168.952C154.79 168.892 154.98 168.904 155.145 168.985C155.311 169.067 155.437 169.21 155.496 169.384C155.556 169.558 155.543 169.749 155.462 169.914C155.381 170.079 155.238 170.205 155.064 170.265C153.947 170.643 152.833 171.007 151.721 171.357C151.594 171.397 151.458 171.399 151.33 171.365C151.202 171.33 151.087 171.259 150.998 171.16L151.007 171.17ZM158.938 168.423C158.859 168.34 158.801 168.238 158.772 168.127C158.742 168.016 158.74 167.9 158.766 167.788C158.792 167.676 158.846 167.573 158.922 167.487C158.998 167.401 159.095 167.336 159.202 167.296C160.284 166.894 161.371 166.477 162.449 166.039C162.619 165.971 162.81 165.973 162.979 166.045C163.148 166.117 163.282 166.253 163.351 166.424C163.419 166.594 163.417 166.785 163.345 166.954C163.273 167.123 163.137 167.257 162.967 167.326C161.877 167.761 160.784 168.184 159.686 168.596C159.558 168.644 159.418 168.654 159.285 168.623C159.152 168.592 159.031 168.522 158.938 168.423ZM166.716 165.259C166.664 165.202 166.621 165.136 166.591 165.064C166.516 164.896 166.511 164.706 166.577 164.535C166.643 164.364 166.774 164.225 166.941 164.151C168.005 163.689 169.065 163.202 170.115 162.715C170.198 162.669 170.29 162.641 170.384 162.631C170.478 162.622 170.573 162.633 170.664 162.662C170.754 162.691 170.837 162.738 170.908 162.801C170.979 162.863 171.037 162.94 171.077 163.026C171.118 163.111 171.14 163.205 171.143 163.299C171.146 163.394 171.129 163.488 171.094 163.576C171.059 163.664 171.006 163.744 170.939 163.811C170.871 163.878 170.791 163.93 170.703 163.965C169.638 164.466 168.573 164.947 167.499 165.419C167.368 165.478 167.221 165.495 167.08 165.467C166.939 165.44 166.81 165.368 166.711 165.264L166.716 165.259ZM174.304 161.658C174.257 161.617 174.214 161.571 174.177 161.521C174.135 161.44 174.11 161.351 174.102 161.261C174.095 161.17 174.105 161.078 174.134 160.991C174.162 160.904 174.207 160.824 174.266 160.754C174.325 160.685 174.398 160.628 174.479 160.587C175.513 160.058 176.542 159.519 177.567 158.967C177.727 158.882 177.915 158.863 178.089 158.915C178.263 158.967 178.409 159.085 178.497 159.244C178.541 159.324 178.568 159.412 178.578 159.503C178.587 159.593 178.579 159.685 178.553 159.772C178.527 159.86 178.485 159.941 178.427 160.012C178.37 160.082 178.299 160.141 178.219 160.185C177.191 160.746 176.153 161.287 175.111 161.823C174.977 161.888 174.825 161.907 174.679 161.878C174.532 161.849 174.399 161.773 174.299 161.663L174.304 161.658ZM181.673 157.628L181.569 157.516C181.522 157.438 181.492 157.351 181.479 157.26C181.466 157.17 181.472 157.078 181.495 156.989C181.518 156.901 181.559 156.818 181.614 156.745C181.669 156.672 181.739 156.611 181.818 156.565C182.817 155.984 183.813 155.377 184.785 154.746C184.944 154.647 185.135 154.615 185.317 154.657C185.499 154.699 185.657 154.812 185.756 154.971C185.855 155.129 185.887 155.321 185.845 155.503C185.803 155.685 185.69 155.843 185.531 155.942C184.537 156.56 183.536 157.177 182.528 157.795C182.387 157.872 182.223 157.897 182.065 157.867C181.907 157.836 181.765 157.752 181.663 157.627L181.673 157.628ZM188.782 153.148L188.707 153.067C188.605 152.915 188.567 152.729 188.602 152.55C188.637 152.37 188.741 152.212 188.892 152.109C189.529 151.676 190.166 151.243 190.799 150.795L191.758 150.119C191.908 150.014 192.094 149.973 192.275 150.005C192.456 150.037 192.616 150.14 192.721 150.29C192.825 150.439 192.866 150.624 192.835 150.803C192.804 150.983 192.704 151.143 192.556 151.249L191.592 151.93C190.954 152.382 190.312 152.82 189.665 153.252C189.528 153.344 189.363 153.384 189.199 153.364C189.036 153.345 188.885 153.268 188.773 153.148L188.782 153.148ZM195.602 148.286L195.55 148.23C195.496 148.157 195.456 148.075 195.433 147.987C195.41 147.899 195.405 147.807 195.418 147.717C195.43 147.627 195.461 147.54 195.507 147.462C195.553 147.384 195.614 147.315 195.687 147.261C196.658 146.536 197.583 145.824 198.44 145.139C198.511 145.082 198.593 145.04 198.681 145.015C198.768 144.99 198.86 144.982 198.951 144.993C199.042 145.003 199.129 145.032 199.209 145.076C199.289 145.121 199.359 145.18 199.415 145.252C199.472 145.323 199.514 145.405 199.539 145.493C199.565 145.581 199.572 145.672 199.562 145.763C199.551 145.854 199.523 145.941 199.478 146.021C199.434 146.101 199.374 146.171 199.303 146.227C198.431 146.916 197.495 147.637 196.545 148.343C196.406 148.454 196.229 148.507 196.052 148.49C195.875 148.474 195.71 148.39 195.593 148.256L195.602 148.286ZM202.123 143.021C201.998 142.887 201.931 142.709 201.937 142.525C201.944 142.342 202.023 142.169 202.157 142.043C202.719 141.52 203.304 141.021 203.861 140.502C204.145 140.238 204.428 139.974 204.712 139.71C204.846 139.585 205.024 139.518 205.208 139.524C205.391 139.531 205.564 139.61 205.69 139.744C205.815 139.878 205.881 140.057 205.875 140.24C205.869 140.424 205.79 140.597 205.655 140.722C205.367 140.991 205.078 141.26 204.79 141.529C204.223 142.057 203.651 142.59 203.055 143.098C202.917 143.201 202.745 143.249 202.574 143.232C202.403 143.215 202.244 143.135 202.128 143.007L202.123 143.021ZM208.097 137.15C207.977 137.023 207.91 136.856 207.909 136.681C207.908 136.507 207.973 136.339 208.09 136.21C208.86 135.361 209.615 134.477 210.362 133.573C210.42 133.502 210.492 133.444 210.573 133.401C210.654 133.358 210.743 133.331 210.834 133.323C210.925 133.314 211.017 133.324 211.105 133.351C211.192 133.377 211.274 133.421 211.344 133.48C211.415 133.538 211.473 133.61 211.516 133.691C211.559 133.772 211.586 133.861 211.594 133.952C211.603 134.043 211.593 134.135 211.566 134.223C211.54 134.31 211.496 134.392 211.437 134.462C210.695 135.371 209.924 136.27 209.14 137.133C209.017 137.269 208.845 137.35 208.662 137.359C208.479 137.369 208.3 137.305 208.164 137.182L208.097 137.15ZM161.619 77.758L161.515 77.6466C161.469 77.568 161.438 77.4809 161.426 77.3904C161.413 77.2999 161.418 77.2077 161.441 77.1193C161.465 77.0309 161.505 76.948 161.56 76.8753C161.616 76.8026 161.685 76.7415 161.764 76.6957C162.794 76.0954 163.827 75.5197 164.845 74.9875C164.925 74.9454 165.014 74.9195 165.104 74.9113C165.195 74.9032 165.286 74.913 165.373 74.9401C165.46 74.9673 165.54 75.0113 165.61 75.0696C165.68 75.1278 165.737 75.1993 165.78 75.2799C165.822 75.3605 165.848 75.4485 165.856 75.5391C165.864 75.6297 165.854 75.721 165.827 75.8078C165.8 75.8946 165.756 75.9751 165.698 76.0449C165.639 76.1147 165.568 76.1724 165.487 76.2146C164.49 76.7377 163.471 77.2992 162.461 77.8904C162.326 77.9656 162.17 77.9934 162.017 77.9694C161.865 77.9454 161.724 77.871 161.619 77.758ZM213.35 130.598C213.237 130.482 213.169 130.33 213.157 130.168C213.145 130.007 213.189 129.846 213.283 129.714C213.927 128.802 214.578 127.836 215.22 126.85C215.269 126.773 215.333 126.707 215.408 126.656C215.483 126.604 215.567 126.567 215.656 126.548C215.745 126.529 215.837 126.528 215.926 126.544C216.015 126.56 216.101 126.594 216.177 126.643C216.254 126.693 216.319 126.756 216.371 126.831C216.423 126.906 216.459 126.99 216.479 127.079C216.498 127.168 216.499 127.26 216.483 127.349C216.466 127.439 216.433 127.524 216.383 127.6C215.731 128.606 215.065 129.586 214.386 130.532C214.28 130.68 214.12 130.782 213.94 130.813C213.76 130.844 213.575 130.803 213.425 130.699C213.394 130.667 213.367 130.631 213.346 130.593L213.35 130.598ZM169.077 73.9661C169 73.8851 168.944 73.7867 168.913 73.6793C168.882 73.5719 168.878 73.4587 168.901 73.3494C168.923 73.24 168.972 73.1377 169.043 73.0513C169.113 72.9648 169.204 72.8968 169.307 72.853C170.4 72.3822 171.503 71.9411 172.589 71.5435C172.761 71.4809 172.952 71.4892 173.118 71.5666C173.284 71.6441 173.413 71.7843 173.475 71.9565C173.538 72.1289 173.53 72.319 173.452 72.4852C173.375 72.6514 173.235 72.78 173.062 72.8429C172.001 73.2365 170.923 73.6637 169.859 74.1258C169.728 74.1803 169.582 74.1929 169.443 74.1617C169.304 74.1305 169.178 74.0571 169.082 73.9516L169.077 73.9661ZM217.838 123.539C217.739 123.432 217.676 123.296 217.658 123.152C217.64 123.007 217.669 122.86 217.739 122.732C218.288 121.738 218.809 120.704 219.287 119.663C219.319 119.574 219.37 119.492 219.436 119.423C219.501 119.354 219.581 119.3 219.668 119.263C219.756 119.226 219.85 119.208 219.946 119.209C220.041 119.21 220.135 119.231 220.221 119.27C220.308 119.309 220.386 119.366 220.45 119.436C220.513 119.507 220.562 119.59 220.592 119.68C220.623 119.77 220.634 119.866 220.626 119.961C220.618 120.055 220.59 120.147 220.545 120.231C220.056 121.311 219.519 122.379 218.95 123.402C218.861 123.562 218.712 123.681 218.536 123.731C218.36 123.782 218.17 123.761 218.01 123.672C217.945 123.634 217.889 123.584 217.844 123.524L217.838 123.539ZM176.979 71.169C176.898 71.0815 176.841 70.9745 176.814 70.8585C176.786 70.7424 176.789 70.6212 176.822 70.5065C176.855 70.3919 176.917 70.2878 177.002 70.2043C177.088 70.1208 177.193 70.0607 177.308 70.03C178.44 69.7221 179.601 69.4446 180.749 69.2157C180.916 69.2019 181.082 69.2487 181.216 69.3475C181.351 69.4464 181.445 69.5906 181.482 69.7535C181.519 69.9165 181.495 70.0872 181.416 70.2341C181.336 70.3811 181.206 70.4944 181.05 70.5531C179.926 70.778 178.795 71.0467 177.693 71.3458C177.569 71.3864 177.437 71.3913 177.311 71.36C177.185 71.3287 177.07 71.2625 176.979 71.169ZM221.207 115.867C221.124 115.777 221.066 115.665 221.04 115.545C221.014 115.424 221.021 115.299 221.06 115.182C221.416 114.093 221.739 112.978 222.013 111.871C222.058 111.693 222.171 111.54 222.329 111.445C222.487 111.351 222.675 111.322 222.854 111.367C223.032 111.412 223.185 111.525 223.28 111.683C223.374 111.84 223.402 112.029 223.358 112.207C223.078 113.348 222.744 114.492 222.377 115.61C222.348 115.696 222.303 115.776 222.243 115.845C222.183 115.914 222.111 115.971 222.029 116.012C221.948 116.053 221.859 116.077 221.768 116.083C221.677 116.09 221.586 116.078 221.499 116.049C221.387 116.017 221.286 115.954 221.207 115.867ZM185.237 69.7063C185.131 69.5915 185.067 69.4443 185.056 69.2887C185.042 69.1065 185.101 68.9263 185.219 68.7874C185.338 68.6485 185.507 68.5621 185.689 68.5471C186.862 68.4562 188.053 68.4148 189.242 68.4321C189.425 68.439 189.598 68.518 189.722 68.6517C189.847 68.7855 189.914 68.9631 189.908 69.1458C189.905 69.2371 189.884 69.3269 189.846 69.4101C189.808 69.4933 189.755 69.5682 189.688 69.6305C189.621 69.6928 189.543 69.7412 189.457 69.773C189.371 69.8048 189.28 69.8194 189.189 69.8158C188.039 69.7999 186.892 69.8379 185.758 69.9205C185.657 69.9234 185.557 69.9045 185.465 69.8649C185.372 69.8253 185.29 69.766 185.223 69.6911L185.237 69.7063ZM223.08 107.708C223.011 107.634 222.958 107.545 222.927 107.448C222.896 107.351 222.886 107.249 222.899 107.148C223.047 106.008 223.146 104.856 223.196 103.722C223.204 103.538 223.285 103.365 223.421 103.242C223.556 103.118 223.736 103.053 223.919 103.062C224.102 103.07 224.275 103.151 224.399 103.286C224.523 103.422 224.587 103.601 224.579 103.785C224.528 104.958 224.423 106.144 224.274 107.324C224.262 107.414 224.233 107.501 224.188 107.58C224.143 107.659 224.082 107.729 224.01 107.784C223.938 107.84 223.856 107.881 223.768 107.905C223.68 107.929 223.589 107.935 223.498 107.923C223.331 107.902 223.177 107.82 223.066 107.693L223.08 107.708ZM193.592 69.9215C193.522 69.8473 193.47 69.7586 193.439 69.6619C193.407 69.5652 193.398 69.4628 193.411 69.3619C193.422 69.2716 193.451 69.1844 193.496 69.1054C193.541 69.0264 193.602 68.957 193.674 68.9014C193.746 68.8457 193.828 68.8047 193.916 68.7809C194.004 68.7571 194.095 68.7508 194.186 68.7624C195.36 68.9163 196.538 69.1241 197.689 69.3751C197.779 69.394 197.864 69.4305 197.939 69.4825C198.015 69.5345 198.079 69.6009 198.129 69.678C198.178 69.755 198.212 69.8411 198.228 69.9313C198.244 70.0214 198.242 70.1139 198.222 70.2033C198.202 70.2927 198.164 70.3772 198.111 70.4519C198.059 70.5267 197.991 70.5902 197.914 70.6388C197.836 70.6874 197.75 70.7201 197.659 70.735C197.569 70.7499 197.476 70.7467 197.387 70.7257C196.28 70.4811 195.141 70.2844 194.005 70.1417C193.846 70.1186 193.7 70.0407 193.592 69.9215ZM223.272 99.3275C223.166 99.2127 223.102 99.0655 223.091 98.9099C222.983 97.78 222.848 96.6198 222.651 95.5357C222.625 95.4431 222.619 95.3462 222.632 95.251C222.646 95.1558 222.679 95.0645 222.73 94.9829C222.781 94.9012 222.848 94.8311 222.927 94.7769C223.007 94.7228 223.097 94.6857 223.191 94.6682C223.286 94.6507 223.383 94.6531 223.476 94.6752C223.57 94.6973 223.658 94.7387 223.735 94.7967C223.811 94.8547 223.875 94.9281 223.922 95.0121C223.969 95.0961 223.997 95.1889 224.006 95.2847C224.22 96.4379 224.379 97.6234 224.469 98.8261C224.482 98.9702 224.45 99.1147 224.377 99.2394C224.303 99.3641 224.193 99.4627 224.06 99.5213C223.928 99.5799 223.781 99.5955 223.639 99.566C223.497 99.5365 223.369 99.4633 223.271 99.3568L223.272 99.3275ZM201.734 71.8674C201.647 71.7746 201.588 71.6597 201.562 71.5353C201.536 71.4109 201.545 71.2818 201.587 71.1621C201.618 71.0763 201.665 70.9973 201.726 70.9298C201.787 70.8622 201.861 70.8074 201.944 70.7684C202.026 70.7295 202.115 70.7071 202.206 70.7028C202.297 70.6983 202.388 70.712 202.474 70.7428C203.596 71.1445 204.706 71.5948 205.761 72.0872C205.843 72.1252 205.918 72.179 205.979 72.2456C206.041 72.3123 206.089 72.3905 206.121 72.4757C206.152 72.5609 206.167 72.6515 206.163 72.7423C206.16 72.8331 206.139 72.9223 206.101 73.0049C206.063 73.0875 206.009 73.1618 205.942 73.2236C205.876 73.2853 205.797 73.3334 205.712 73.3649C205.627 73.3965 205.536 73.411 205.445 73.4075C205.355 73.404 205.265 73.3827 205.183 73.3448C204.162 72.8683 203.104 72.4443 202.007 72.0483C201.903 72.0107 201.809 71.9486 201.734 71.8674ZM221.582 91.1308C221.516 91.0608 221.467 90.9771 221.439 90.8859C221.066 89.8087 220.632 88.7538 220.139 87.7263C220.101 87.6439 220.078 87.5547 220.074 87.4637C220.069 87.3727 220.083 87.2817 220.114 87.196C220.145 87.1102 220.192 87.0313 220.253 86.9639C220.314 86.8964 220.388 86.8417 220.471 86.8028C220.553 86.7639 220.642 86.7416 220.733 86.7372C220.824 86.7328 220.915 86.7463 221.001 86.7771C221.087 86.8078 221.166 86.8551 221.233 86.9164C221.3 86.9776 221.355 87.0515 221.394 87.1339C221.907 88.2077 222.358 89.3107 222.742 90.4371C222.772 90.5231 222.784 90.614 222.779 90.7048C222.774 90.7956 222.751 90.8844 222.711 90.9663C222.671 91.0481 222.616 91.1213 222.548 91.1816C222.48 91.242 222.4 91.2884 222.314 91.3181C222.187 91.3646 222.048 91.3726 221.916 91.341C221.784 91.3093 221.664 91.2395 221.572 91.1402L221.582 91.1308ZM209.248 75.544C209.137 75.4324 209.067 75.2865 209.051 75.1301C209.034 74.9738 209.071 74.8164 209.156 74.6839C209.205 74.6068 209.269 74.5403 209.344 74.4882C209.419 74.436 209.504 74.3993 209.594 74.3801C209.683 74.361 209.775 74.3597 209.865 74.3765C209.955 74.3933 210.041 74.4277 210.118 74.4778C211.107 75.1156 212.063 75.8028 212.983 76.5369C213.054 76.5947 213.113 76.666 213.157 76.7467C213.201 76.8273 213.228 76.9158 213.238 77.0071C213.247 77.0984 213.239 77.1906 213.212 77.2786C213.186 77.3665 213.143 77.4485 213.085 77.5197C213.028 77.591 212.956 77.6502 212.876 77.6939C212.795 77.7377 212.706 77.7651 212.615 77.7746C212.524 77.7841 212.432 77.7756 212.344 77.7494C212.256 77.7233 212.174 77.6801 212.103 77.6223C211.231 76.9209 210.3 76.2468 209.308 75.6391C209.285 75.6091 209.265 75.5773 209.248 75.544ZM217.775 83.6774L217.709 83.6065C217.053 82.6775 216.344 81.7877 215.585 80.9418C215.459 80.8076 215.393 80.6291 215.399 80.4457C215.406 80.2623 215.485 80.0889 215.619 79.9638C215.753 79.8387 215.932 79.772 216.115 79.7784C216.298 79.7849 216.472 79.8639 216.597 79.9982C217.393 80.8857 218.137 81.8192 218.824 82.7938C218.94 82.9368 218.994 83.1199 218.975 83.3029C218.956 83.4858 218.865 83.6536 218.722 83.7694C218.579 83.8851 218.395 83.9393 218.212 83.92C218.029 83.9007 217.862 83.8096 217.746 83.6665L217.775 83.6774Z" fill="black"/>
</svg>
