<svg width="29" height="30" viewBox="0 0 29 30" fill="none" xmlns="http://www.w3.org/2000/svg">
<g opacity="0.6">
<path d="M3.53224 8.66434C4.58744 12.0477 8.18561 13.935 11.569 12.8798C14.9523 11.8246 22.9658 6.31587 21.9106 2.93251C20.8554 -0.450849 11.1311 -0.427587 7.74775 0.627613C4.36439 1.68281 2.47704 5.28098 3.53224 8.66434Z" fill="url(#paint0_radial_114_1265)"/>
<path d="M1.4894 27.2163C3.47526 29.2022 6.69462 29.2022 8.68048 27.2163C10.6663 25.2305 14.2617 18.4154 12.2762 16.4295C10.2903 14.4439 3.47526 18.0394 1.4894 20.0251C-0.496465 22.0109 -0.496465 25.2305 1.4894 27.2163Z" fill="url(#paint1_radial_114_1265)"/>
<path d="M20.4904 29.169C23.9138 30.0862 27.4326 28.0547 28.35 24.6313C29.267 21.208 28.8966 11.4909 25.4732 10.5735C22.0498 9.65626 16.8703 17.8862 15.953 21.3096C15.0356 24.7328 17.0671 28.2516 20.4904 29.169Z" fill="url(#paint2_linear_114_1265)"/>
</g>
<defs>
<radialGradient id="paint0_radial_114_1265" cx="0" cy="0" r="1" gradientUnits="userSpaceOnUse" gradientTransform="translate(21.9986 2.77286) rotate(162.759) scale(27.0629 38.5547)">
<stop/>
<stop offset="0.48585"/>
<stop offset="0.71428"/>
</radialGradient>
<radialGradient id="paint1_radial_114_1265" cx="0" cy="0" r="1" gradientUnits="userSpaceOnUse" gradientTransform="translate(13.9365 15.6861) rotate(146.921) scale(23.1881 53.7511)">
<stop offset="0.0977501"/>
<stop offset="0.467786"/>
<stop offset="0.700031"/>
</radialGradient>
<linearGradient id="paint2_linear_114_1265" x1="23.9177" y1="11.2299" x2="23.9177" y2="29.5901" gradientUnits="userSpaceOnUse">
<stop/>
<stop offset="1"/>
</linearGradient>
</defs>
</svg>
