<svg width="90" height="90" viewBox="0 0 90 90" fill="none" xmlns="http://www.w3.org/2000/svg">
<path d="M78.979 1.68712C79.3774 2.00444 79.6592 2.44514 79.7804 2.93966C79.9016 3.43409 79.8556 3.95451 79.6492 4.41948C72.7086 19.6865 69.5279 30.9222 70.7472 41.7469C71.9666 52.5718 77.5675 62.814 87.7553 76.1451L87.7547 76.1459C88.0602 76.5532 88.2222 77.05 88.215 77.5587C88.2077 78.0676 88.0318 78.5599 87.7147 78.958C87.3977 79.356 86.9572 79.6377 86.4628 79.7586C86.0302 79.8644 85.5773 79.8423 85.159 79.6965L84.9828 79.6261C69.7104 72.6789 58.4743 69.5122 47.6509 70.7454C36.8278 71.9787 26.5884 77.5925 13.2611 87.7727C12.8541 88.0779 12.3572 88.2392 11.8482 88.2317C11.3391 88.2241 10.8466 88.0482 10.4481 87.7308C10.0497 87.4134 9.76785 86.9726 9.64665 86.4782C9.54067 86.0456 9.56273 85.5931 9.7082 85.1752L9.77782 84.9984C16.7187 69.7308 19.8891 58.4874 18.6593 47.6545C17.4293 36.8214 11.8186 26.5701 1.63033 13.2386L1.63109 13.2392C1.32563 12.8319 1.16361 12.3351 1.17081 11.8264C1.17808 11.3175 1.35406 10.8251 1.67108 10.4271C1.98811 10.029 2.42864 9.74734 2.92302 9.6264C3.41725 9.50557 3.93769 9.55234 4.40299 9.75894L4.40284 9.75757C19.6757 16.705 30.9219 19.8809 41.7556 18.6561C52.5891 17.4312 62.8381 11.8258 76.1659 1.64515C76.5729 1.34004 77.07 1.17878 77.5789 1.18623C78.088 1.19375 78.5806 1.36986 78.979 1.68712Z" fill="black" stroke="#26103D" stroke-width="2"/>
</svg>
